<?xml version="1.0" encoding="utf-8"?>
<!-- Generator: Adobe Illustrator 24.3.0, SVG Export Plug-In . SVG Version: 6.00 Build 0)  -->
<svg version="1.1" id="Layer_1" xmlns="http://www.w3.org/2000/svg" xmlns:xlink="http://www.w3.org/1999/xlink" x="0px" y="0px"
	 viewBox="0 0 1920 530.71" style="enable-background:new 0 0 1920 530.71;" xml:space="preserve">
<style type="text/css">
	.st0{fill:#5283C5;}
</style>
<g>
	<g>
		<g>
			<path class="st0" d="M742.46,134.91v154.34H711.5v-65.67h-66.12v65.67h-30.96V134.91h30.96v63.46h66.12v-63.46H742.46z"/>
			<path class="st0" d="M804.81,280.63c-12.09-6.78-21.67-16.18-28.75-28.19c-7.08-12.01-10.61-25.61-10.61-40.8
				c0-15.04,3.54-28.56,10.61-40.58c7.08-12.01,16.66-21.41,28.75-28.19c12.09-6.78,25.35-10.17,39.8-10.17
				c14.59,0,27.9,3.39,39.91,10.17c12.01,6.78,21.52,16.18,28.53,28.19c7,12.02,10.5,25.54,10.5,40.58c0,15.18-3.5,28.78-10.5,40.8
				c-7,12.02-16.55,21.41-28.64,28.19c-12.09,6.78-25.36,10.17-39.8,10.17C830.17,290.8,816.9,287.41,804.81,280.63z M869.16,256.86
				c7.08-4.2,12.6-10.21,16.58-18.02c3.98-7.81,5.97-16.88,5.97-27.2c0-10.32-1.99-19.35-5.97-27.09
				c-3.98-7.74-9.51-13.67-16.58-17.8c-7.08-4.13-15.26-6.19-24.54-6.19c-9.29,0-17.51,2.07-24.66,6.19
				c-7.15,4.13-12.71,10.06-16.69,17.8c-3.98,7.74-5.97,16.77-5.97,27.09c0,10.32,1.99,19.39,5.97,27.2
				c3.98,7.81,9.54,13.82,16.69,18.02c7.15,4.2,15.37,6.3,24.66,6.3C853.9,263.16,862.09,261.06,869.16,256.86z"/>
			<path class="st0" d="M1026.16,289.26l-34.05-60.15h-14.59v60.15h-30.96V134.91h57.93c11.94,0,22.11,2.1,30.51,6.3
				c8.4,4.2,14.71,9.88,18.91,17.03c4.2,7.15,6.3,15.15,6.3,23.99c0,10.17-2.95,19.35-8.85,27.53c-5.9,8.18-14.67,13.82-26.31,16.92
				l36.93,62.58H1026.16z M977.51,205.89h25.87c8.4,0,14.67-2.02,18.8-6.08c4.13-4.05,6.19-9.69,6.19-16.92
				c0-7.08-2.07-12.57-6.19-16.47c-4.13-3.9-10.39-5.86-18.8-5.86h-25.87V205.89z"/>
			<path class="st0" d="M1220.3,289.26h-30.96l-70.1-105.92v105.92h-30.96V134.69h30.96l70.1,106.14V134.69h30.96V289.26z"/>
			<path class="st0" d="M1359.83,223.14c5.6,7.08,8.4,15.19,8.4,24.32c0,8.26-2.03,15.52-6.08,21.78
				c-4.06,6.27-9.92,11.17-17.58,14.7c-7.67,3.54-16.73,5.31-27.2,5.31h-66.56V134.91h63.68c10.47,0,19.49,1.7,27.09,5.09
				c7.59,3.39,13.34,8.11,17.25,14.15c3.9,6.05,5.86,12.9,5.86,20.56c0,8.99-2.4,16.51-7.19,22.55
				c-4.79,6.05-11.17,10.32-19.13,12.83C1347.07,211.72,1354.22,216.06,1359.83,223.14z M1281.77,198.6h28.3
				c7.37,0,13.05-1.66,17.03-4.98c3.98-3.32,5.97-8.07,5.97-14.26c0-6.19-1.99-10.98-5.97-14.37c-3.98-3.39-9.66-5.09-17.03-5.09
				h-28.3V198.6z M1330.53,258.74c4.2-3.54,6.3-8.55,6.3-15.04c0-6.63-2.21-11.83-6.63-15.59c-4.42-3.76-10.39-5.64-17.91-5.64
				h-30.51v41.57h31.18C1320.47,264.05,1326.32,262.28,1330.53,258.74z"/>
			<path class="st0" d="M1424.83,280.63c-12.09-6.78-21.67-16.18-28.75-28.19c-7.08-12.01-10.61-25.61-10.61-40.8
				c0-15.04,3.54-28.56,10.61-40.58c7.08-12.01,16.66-21.41,28.75-28.19c12.09-6.78,25.35-10.17,39.8-10.17
				c14.59,0,27.9,3.39,39.91,10.17c12.01,6.78,21.52,16.18,28.53,28.19c7,12.02,10.5,25.54,10.5,40.58c0,15.18-3.5,28.78-10.5,40.8
				c-7,12.02-16.55,21.41-28.64,28.19c-12.09,6.78-25.36,10.17-39.8,10.17C1450.19,290.8,1436.92,287.41,1424.83,280.63z
				 M1489.18,256.86c7.08-4.2,12.6-10.21,16.58-18.02c3.98-7.81,5.97-16.88,5.97-27.2c0-10.32-1.99-19.35-5.97-27.09
				c-3.98-7.74-9.51-13.67-16.58-17.8c-7.08-4.13-15.26-6.19-24.54-6.19c-9.29,0-17.51,2.07-24.66,6.19
				c-7.15,4.13-12.71,10.06-16.7,17.8c-3.98,7.74-5.97,16.77-5.97,27.09c0,10.32,1.99,19.39,5.97,27.2
				c3.98,7.81,9.54,13.82,16.7,18.02c7.15,4.2,15.37,6.3,24.66,6.3C1473.92,263.16,1482.1,261.06,1489.18,256.86z"/>
			<path class="st0" d="M1598.41,280.63c-12.09-6.78-21.67-16.18-28.75-28.19c-7.08-12.01-10.61-25.61-10.61-40.8
				c0-15.04,3.54-28.56,10.61-40.58c7.08-12.01,16.66-21.41,28.75-28.19c12.09-6.78,25.35-10.17,39.8-10.17
				c14.59,0,27.9,3.39,39.91,10.17c12.01,6.78,21.52,16.18,28.53,28.19c7,12.02,10.5,25.54,10.5,40.58c0,15.18-3.5,28.78-10.5,40.8
				c-7,12.02-16.55,21.41-28.64,28.19c-12.09,6.78-25.36,10.17-39.8,10.17C1623.77,290.8,1610.5,287.41,1598.41,280.63z
				 M1662.76,256.86c7.08-4.2,12.6-10.21,16.58-18.02c3.98-7.81,5.97-16.88,5.97-27.2c0-10.32-1.99-19.35-5.97-27.09
				c-3.98-7.74-9.51-13.67-16.58-17.8c-7.08-4.13-15.26-6.19-24.54-6.19c-9.29,0-17.51,2.07-24.66,6.19
				c-7.15,4.13-12.71,10.06-16.7,17.8c-3.98,7.74-5.97,16.77-5.97,27.09c0,10.32,1.99,19.39,5.97,27.2
				c3.98,7.81,9.54,13.82,16.7,18.02c7.15,4.2,15.37,6.3,24.66,6.3C1647.5,263.16,1655.68,261.06,1662.76,256.86z"/>
			<path class="st0" d="M1827.27,289.26l-56.17-68.77v68.77h-30.96V134.91h30.96v69.21l56.17-69.21h37.37l-63.68,76.51l65.45,77.84
				H1827.27z"/>
		</g>
	</g>
	<g>
		<g>
			<path class="st0" d="M182.83,71.49v258.49c0,35.69-14.47,68-37.85,91.39c-23.39,23.39-55.7,37.86-91.39,37.86V200.73
				c0-35.69,14.47-68,37.85-91.39C114.83,85.95,147.14,71.49,182.83,71.49z"/>
		</g>
		<g>
			<path class="st0" d="M340.89,121.95c11.7,11.69,18.93,27.85,18.93,45.69c0,35.69-28.93,64.62-64.62,64.62h-64.62V103.02h64.62
				C313.04,103.02,329.19,110.25,340.89,121.95z"/>
			<path class="st0" d="M359.82,167.64c0,35.69-28.93,64.62-64.62,64.62h-64.62V103.02h64.62c17.85,0,34,7.23,45.69,18.93
				C352.58,133.64,359.82,149.8,359.82,167.64z"/>
			<path class="st0" d="M359.82,363.06c0,35.69-28.93,64.62-64.62,64.62h-64.62V298.44h64.62c17.85,0,34,7.23,45.69,18.93
				S359.82,345.22,359.82,363.06z"/>
			<path class="st0" d="M359.82,363.06c0,35.69-28.93,64.62-64.62,64.62h-64.62V298.44h64.62c17.85,0,34,7.23,45.69,18.93
				S359.82,345.22,359.82,363.06z"/>
		</g>
		<g>
			<path class="st0" d="M536.8,71.49v258.49c0,35.69-14.47,68-37.86,91.39c-23.39,23.39-55.7,37.86-91.39,37.86V200.73
				c0-35.69,14.47-68,37.85-91.39C468.8,85.95,501.11,71.49,536.8,71.49L536.8,71.49z"/>
			<path class="st0" d="M536.8,71.49v258.49c0,35.69-14.47,68-37.86,91.39c-23.39,23.39-55.7,37.86-91.39,37.86V200.73
				c0-35.69,14.47-68,37.85-91.39C468.8,85.95,501.11,71.49,536.8,71.49L536.8,71.49z"/>
		</g>
	</g>
	<g>
		<g>
			<path class="st0" d="M659.16,331.7v6.89h-17.68v57.99h-8.47v-57.99h-17.78v-6.89H659.16z"/>
			<path class="st0" d="M687.36,338.59v21.69h23.64v6.98h-23.64v22.34h26.43v6.98h-34.9V331.6h34.9v6.98H687.36z"/>
			<path class="st0" d="M737.07,347.01c2.85-5.06,6.75-9.01,11.68-11.87c4.93-2.85,10.41-4.28,16.43-4.28
				c7.07,0,13.25,1.71,18.52,5.12c5.27,3.41,9.12,8.25,11.54,14.52h-10.15c-1.8-3.91-4.39-6.92-7.77-9.03
				c-3.38-2.11-7.43-3.17-12.15-3.17c-4.53,0-8.59,1.06-12.19,3.17c-3.6,2.11-6.42,5.1-8.47,8.98c-2.05,3.88-3.07,8.42-3.07,13.64
				c0,5.15,1.02,9.67,3.07,13.54c2.05,3.88,4.87,6.87,8.47,8.98c3.6,2.11,7.66,3.17,12.19,3.17c4.72,0,8.76-1.04,12.15-3.12
				c3.38-2.08,5.97-5.07,7.77-8.98h10.15c-2.42,6.21-6.27,11-11.54,14.38c-5.28,3.38-11.45,5.07-18.52,5.07
				c-6.02,0-11.49-1.41-16.43-4.24c-4.93-2.82-8.83-6.75-11.68-11.77c-2.85-5.03-4.28-10.7-4.28-17.03
				C732.78,357.76,734.21,352.07,737.07,347.01z"/>
			<path class="st0" d="M867.09,331.7v64.88h-8.47v-29.41h-33.04v29.41h-8.47V331.7h8.47v28.48h33.04V331.7H867.09z"/>
			<path class="st0" d="M941.83,396.57h-8.47l-34.07-51.66v51.66h-8.47V331.6h8.47l34.07,51.57V331.6h8.47V396.57z"/>
			<path class="st0" d="M978.5,392.99c-4.97-2.82-8.89-6.76-11.77-11.82c-2.89-5.06-4.33-10.75-4.33-17.08
				c0-6.33,1.44-12.02,4.33-17.08c2.89-5.06,6.81-9,11.77-11.82c4.96-2.82,10.46-4.24,16.47-4.24c6.08,0,11.6,1.41,16.57,4.24
				c4.96,2.82,8.87,6.75,11.73,11.77c2.85,5.03,4.28,10.74,4.28,17.13c0,6.39-1.43,12.1-4.28,17.13
				c-2.85,5.03-6.76,8.95-11.73,11.77c-4.97,2.82-10.49,4.24-16.57,4.24C988.96,397.22,983.47,395.81,978.5,392.99z M1007.22,386.71
				c3.63-2.11,6.48-5.12,8.56-9.03c2.08-3.91,3.12-8.44,3.12-13.59c0-5.21-1.04-9.76-3.12-13.64c-2.08-3.88-4.92-6.87-8.52-8.98
				c-3.6-2.11-7.69-3.17-12.29-3.17c-4.59,0-8.69,1.06-12.29,3.17c-3.6,2.11-6.44,5.1-8.52,8.98c-2.08,3.88-3.12,8.42-3.12,13.64
				c0,5.15,1.04,9.68,3.12,13.59c2.08,3.91,4.93,6.92,8.56,9.03c3.63,2.11,7.71,3.17,12.24,3.17
				C999.51,389.87,1003.59,388.82,1007.22,386.71z"/>
			<path class="st0" d="M1056.5,389.68h22.71v6.89h-31.18V331.7h8.47V389.68z"/>
			<path class="st0" d="M1110.49,392.99c-4.97-2.82-8.89-6.76-11.77-11.82c-2.89-5.06-4.33-10.75-4.33-17.08
				c0-6.33,1.44-12.02,4.33-17.08c2.89-5.06,6.81-9,11.77-11.82c4.96-2.82,10.46-4.24,16.47-4.24c6.08,0,11.6,1.41,16.57,4.24
				c4.96,2.82,8.87,6.75,11.73,11.77c2.85,5.03,4.28,10.74,4.28,17.13c0,6.39-1.43,12.1-4.28,17.13
				c-2.85,5.03-6.76,8.95-11.73,11.77c-4.97,2.82-10.49,4.24-16.57,4.24C1120.94,397.22,1115.45,395.81,1110.49,392.99z
				 M1139.2,386.71c3.63-2.11,6.48-5.12,8.56-9.03c2.08-3.91,3.12-8.44,3.12-13.59c0-5.21-1.04-9.76-3.12-13.64
				c-2.08-3.88-4.92-6.87-8.52-8.98c-3.6-2.11-7.69-3.17-12.29-3.17s-8.69,1.06-12.29,3.17c-3.6,2.11-6.44,5.1-8.52,8.98
				c-2.08,3.88-3.12,8.42-3.12,13.64c0,5.15,1.04,9.68,3.12,13.59c2.08,3.91,4.93,6.92,8.56,9.03c3.63,2.11,7.71,3.17,12.24,3.17
				S1135.57,388.82,1139.2,386.71z"/>
			<path class="st0" d="M1229.16,350.5c-1.8-3.78-4.41-6.72-7.82-8.79c-3.41-2.08-7.38-3.12-11.91-3.12
				c-4.53,0-8.61,1.04-12.24,3.12c-3.63,2.08-6.49,5.06-8.56,8.93c-2.08,3.88-3.12,8.36-3.12,13.45s1.04,9.56,3.12,13.4
				c2.08,3.85,4.93,6.81,8.56,8.89c3.63,2.08,7.71,3.12,12.24,3.12c6.33,0,11.54-1.89,15.64-5.68c4.1-3.78,6.48-8.9,7.17-15.36
				h-25.87v-6.89h34.9v6.52c-0.5,5.34-2.17,10.22-5.03,14.66c-2.85,4.44-6.61,7.94-11.26,10.52c-4.65,2.57-9.84,3.86-15.55,3.86
				c-6.02,0-11.51-1.41-16.47-4.24c-4.97-2.82-8.89-6.75-11.77-11.77c-2.89-5.03-4.33-10.7-4.33-17.03c0-6.33,1.44-12.02,4.33-17.08
				c2.89-5.06,6.81-9,11.77-11.82c4.96-2.82,10.46-4.24,16.47-4.24c6.89,0,12.98,1.71,18.29,5.12c5.31,3.41,9.17,8.22,11.59,14.43
				H1229.16z"/>
			<path class="st0" d="M1270.2,331.7v64.88h-8.47V331.7H1270.2z"/>
			<path class="st0" d="M1302.41,338.59v21.69h23.64v6.98h-23.64v22.34h26.43v6.98h-34.9V331.6h34.9v6.98H1302.41z"/>
			<path class="st0" d="M1360.07,394.94c-3.38-1.52-6.04-3.63-7.96-6.33c-1.92-2.7-2.92-5.82-2.98-9.35h9.03
				c0.31,3.04,1.57,5.6,3.77,7.68c2.2,2.08,5.41,3.12,9.63,3.12c4.03,0,7.21-1.01,9.54-3.02c2.33-2.01,3.49-4.61,3.49-7.77
				c0-2.48-0.68-4.5-2.05-6.05c-1.37-1.55-3.07-2.73-5.12-3.54c-2.05-0.81-4.81-1.68-8.28-2.61c-4.28-1.12-7.71-2.23-10.29-3.35
				c-2.58-1.12-4.78-2.87-6.61-5.26c-1.83-2.39-2.75-5.6-2.75-9.63c0-3.54,0.9-6.67,2.7-9.4c1.8-2.73,4.33-4.84,7.59-6.33
				c3.26-1.49,7-2.23,11.22-2.23c6.08,0,11.06,1.52,14.94,4.56c3.88,3.04,6.06,7.07,6.56,12.1h-9.31c-0.31-2.48-1.61-4.67-3.91-6.56
				c-2.3-1.89-5.34-2.84-9.12-2.84c-3.54,0-6.42,0.92-8.66,2.75c-2.23,1.83-3.35,4.39-3.35,7.68c0,2.36,0.67,4.28,2,5.77
				c1.33,1.49,2.98,2.62,4.93,3.4c1.95,0.78,4.7,1.66,8.24,2.65c4.28,1.18,7.72,2.34,10.33,3.49c2.61,1.15,4.84,2.92,6.7,5.31
				c1.86,2.39,2.79,5.63,2.79,9.73c0,3.16-0.84,6.14-2.51,8.93c-1.68,2.79-4.16,5.06-7.45,6.79c-3.29,1.74-7.17,2.61-11.64,2.61
				C1367.28,397.22,1363.45,396.46,1360.07,394.94z"/>
			<path class="st0" d="M1486.93,364.13c-3.69,3.57-9.32,5.35-16.89,5.35h-12.47v27.08h-8.47V331.7h20.94
				c7.32,0,12.89,1.77,16.71,5.31c3.82,3.54,5.72,8.1,5.72,13.68C1492.47,356.08,1490.62,360.57,1486.93,364.13z M1480.46,359.43
				c2.23-2.05,3.35-4.96,3.35-8.75c0-8-4.59-12.01-13.77-12.01h-12.47v23.83h12.47C1474.75,362.51,1478.23,361.48,1480.46,359.43z"
				/>
			<path class="st0" d="M1565.91,331.7l-24.48,64.88h-9.77l-24.48-64.88h9.03l20.38,55.94l20.38-55.94H1565.91z"/>
			<path class="st0" d="M1624.45,331.7v6.89h-17.68v57.99h-8.47v-57.99h-17.78v-6.89H1624.45z"/>
			<path class="st0" d="M1633.96,395.45c-1.12-1.12-1.68-2.48-1.68-4.1c0-1.61,0.56-2.98,1.68-4.1c1.12-1.12,2.48-1.67,4.1-1.67
				c1.55,0,2.87,0.56,3.96,1.67c1.08,1.12,1.63,2.48,1.63,4.1c0,1.61-0.54,2.98-1.63,4.1c-1.09,1.12-2.4,1.68-3.96,1.68
				C1636.44,397.13,1635.08,396.57,1633.96,395.45z"/>
			<path class="st0" d="M1681.51,389.68h22.71v6.89h-31.18V331.7h8.47V389.68z"/>
			<path class="st0" d="M1762.48,331.7v6.89h-17.68v57.99h-8.47v-57.99h-17.78v-6.89H1762.48z"/>
			<path class="st0" d="M1820.79,335.65c5.18,2.64,9.15,6.41,11.91,11.31c2.76,4.9,4.14,10.67,4.14,17.31
				c0,6.64-1.38,12.4-4.14,17.27c-2.76,4.87-6.73,8.59-11.91,11.17c-5.18,2.58-11.31,3.86-18.38,3.86h-20.2V331.7h20.2
				C1809.48,331.7,1815.61,333.02,1820.79,335.65z M1821.58,382.94c4.41-4.44,6.61-10.66,6.61-18.66c0-8.07-2.22-14.36-6.65-18.89
				c-4.44-4.53-10.81-6.79-19.13-6.79h-11.73v51.01h11.73C1810.79,389.59,1817.18,387.37,1821.58,382.94z"/>
			<path class="st0" d="M1851.08,395.45c-1.12-1.12-1.68-2.48-1.68-4.1c0-1.61,0.56-2.98,1.68-4.1c1.12-1.12,2.48-1.67,4.1-1.67
				c1.55,0,2.87,0.56,3.96,1.67c1.08,1.12,1.63,2.48,1.63,4.1c0,1.61-0.54,2.98-1.63,4.1c-1.09,1.12-2.4,1.68-3.96,1.68
				C1853.56,397.13,1852.19,396.57,1851.08,395.45z"/>
		</g>
	</g>
</g>
</svg>
