<?xml version="1.0" encoding="UTF-8"?>
<svg version="1.1" xmlns="http://www.w3.org/2000/svg" width="906" height="512">
<path d="M0 0 C298.98 0 597.96 0 906 0 C906 168.96 906 337.92 906 512 C607.02 512 308.04 512 0 512 C0 343.04 0 174.08 0 0 Z " fill="#000000" transform="translate(0,0)"/>
<path d="M0 0 C15.36972043 -0.04532812 30.73940722 -0.08209397 46.10917664 -0.10362434 C53.24728811 -0.11389159 60.3853548 -0.12786366 67.5234375 -0.15087891 C73.75250183 -0.17095346 79.98153368 -0.18374941 86.21062946 -0.18817699 C89.50206842 -0.19076084 92.79339408 -0.19782288 96.08480835 -0.21146011 C122.9949919 -0.31844132 146.64118385 1.83732398 170.625 15.0625 C171.61628906 15.59166016 172.60757813 16.12082031 173.62890625 16.66601562 C175.03849609 17.43655273 175.03849609 17.43655273 176.4765625 18.22265625 C177.32299316 18.68422119 178.16942383 19.14578613 179.04150391 19.62133789 C181 21 181 21 182 24 C182.680625 24.2475 183.36125 24.495 184.0625 24.75 C188.38456611 26.58917707 191.7727299 29.6045595 195 33 C195 33.66 195 34.32 195 35 C195.66 35 196.32 35 197 35 C199.51828171 37.49967372 201.72539468 40.27868889 204 43 C204.680625 43.763125 205.36125 44.52625 206.0625 45.3125 C209.16550898 49.61667375 211.53981257 54.30703742 214 59 C214.61875 60.155 215.2375 61.31 215.875 62.5 C217 65 217 65 217 68 C217.66 68 218.32 68 219 68 C219.26554687 69.08539063 219.53109375 70.17078125 219.8046875 71.2890625 C220.16133082 72.73440647 220.5181088 74.17971722 220.875 75.625 C221.13603516 76.69427734 221.13603516 76.69427734 221.40234375 77.78515625 C221.57636719 78.48769531 221.75039063 79.19023438 221.9296875 79.9140625 C222.08679199 80.5529541 222.24389648 81.1918457 222.40576172 81.85009766 C222.86287691 83.50390059 223.39917181 85.13596499 223.96800232 86.75474548 C226.96315079 96.17338982 227.3089453 106.00695792 227.30078125 115.81640625 C227.30506638 116.99355698 227.3093515 118.1707077 227.31376648 119.38352966 C227.31946855 121.8583004 227.32004079 124.33308788 227.31567383 126.80786133 C227.31252822 130.5291108 227.33597734 134.24955229 227.36132812 137.97070312 C227.42427573 161.72115076 225.15850102 185.23178353 215 207 C214.62488281 207.81855469 214.24976563 208.63710937 213.86328125 209.48046875 C211.30894309 214.84552846 211.30894309 214.84552846 209 216 C207.98906028 217.72838082 206.98137728 219.45906373 206.01171875 221.2109375 C204.82979444 223.30098126 203.58784314 225.1956328 202 227 C201.34 227 200.68 227 200 227 C200 227.66 200 228.32 200 229 C199.34 229 198.68 229 198 229 C198 229.66 198 230.32 198 231 C196.125 233.125 196.125 233.125 194 235 C193.34 235 192.68 235 192 235 C191.62875 235.9590625 191.62875 235.9590625 191.25 236.9375 C190 239 190 239 187.875 239.75 C187.25625 239.8325 186.6375 239.915 186 240 C186 240.66 186 241.32 186 242 C185.34 242 184.68 242 184 242 C184 242.66 184 243.32 184 244 C181.8046875 245.5859375 181.8046875 245.5859375 178.875 247.375 C175.70613935 249.32350353 172.57989004 251.2621723 169.5625 253.4375 C167 255 167 255 163 255 C163 255.66 163 256.32 163 257 C142.30722957 265.06667322 123.34434903 266 101 266 C101 206.93 101 147.86 101 87 C76.58 87.33 52.16 87.66 27 88 C33.93 88.99 40.86 89.98 48 91 C52.06767239 91.64815869 56.12846354 92.30433362 60.1875 93 C62.03514336 93.31257622 63.88280004 93.62507369 65.73046875 93.9375 C67.79941406 94.288125 69.86835938 94.63875 72 95 C77.94 95.99 83.88 96.98 90 98 C90 139.58 90 181.16 90 224 C75.93715435 226.67863727 62.14972945 229.06283466 48 231 C41.07 231.99 34.14 232.98 27 234 C47.79 234.33 68.58 234.66 90 235 C90 245.23 90 255.46 90 266 C44.46 266 -1.08 266 -48 266 C-48 178.55 -48 91.1 -48 1 C-37.77 1 -27.54 1 -17 1 C-17 78.22 -17 155.44 -17 235 C-11.39 235 -5.78 235 0 235 C-0.00580078 232.63875977 -0.01160156 230.27751953 -0.01757812 227.84472656 C-0.06094289 204.28616918 0.04395646 180.72965259 0.21875 157.171875 C0.22619264 156.16589878 0.22619264 156.16589878 0.23378563 155.1395998 C0.3188649 143.67637092 0.40997057 132.21319149 0.5 120.75 C0.665 99.3825 0.83 78.015 1 56 C44.23 56 87.46 56 132 56 C132 114.41 132 172.82 132 233 C148.86639869 228.18102894 160.5673672 222.95674255 173 211 C173.33 210.34 173.66 209.68 174 209 C174.66 209 175.32 209 176 209 C176.3403125 208.195625 176.3403125 208.195625 176.6875 207.375 C178 205 178 205 180.375 202.25 C184.44121014 197.51208553 186.82261102 191.80637063 189 186 C189.66 186 190.32 186 191 186 C191.1546875 184.081875 191.1546875 184.081875 191.3125 182.125 C191.68017296 178.68805712 192.36552591 175.69703776 193.5 172.4375 C195.40589278 166.27356385 195.75381808 160.17288932 195.92382812 153.76660156 C195.97928138 151.75251075 196.05040155 149.73883292 196.13085938 147.72558594 C196.73510151 131.54678375 196.03455635 115.93944216 193.5 99.9375 C193.39074188 99.19576538 193.28148376 98.45403076 193.16891479 97.68981934 C191.08575135 83.88854966 186.01989411 72.24737242 177.03125 61.41796875 C176 60 176 60 176 58 C175.34 58 174.68 58 174 58 C174 57.01 174 56.02 174 55 C173.34 55 172.68 55 172 55 C172 54.34 172 53.68 172 53 C171.34 53 170.68 53 170 53 C170 52.34 170 51.68 170 51 C169.236875 50.71125 168.47375 50.4225 167.6875 50.125 C165 49 165 49 162 47 C162 46.34 162 45.68 162 45 C161.29875 44.731875 160.5975 44.46375 159.875 44.1875 C157 43 157 43 154.375 41.5625 C150.431163 39.73664954 146.49870546 38.70412849 142.29296875 37.6484375 C140 37 140 37 139 36 C123.42129771 32.48951669 107.78576328 32.52657304 91.89453125 32.48828125 C89.23123989 32.47139957 86.56797986 32.45338505 83.90470886 32.43388367 C77.66507412 32.39063197 71.42546461 32.36183383 65.18572682 32.33856028 C58.06805523 32.31128349 50.95051424 32.26738847 43.83293688 32.22227156 C29.22202421 32.13001916 14.61108074 32.06026218 0 32 C0 21.44 0 10.88 0 0 Z " fill="#1F1D1E" transform="translate(384,1)"/>
<path d="M0 0 C1.66579102 0.23505249 1.66579102 0.23505249 3.36523438 0.47485352 C9.43549424 1.43518041 14.8458328 2.85914611 20.47851562 5.33203125 C23.46524508 6.60934048 26.48533474 7.43095689 29.625 8.25 C29.625 8.91 29.625 9.57 29.625 10.25 C31.605 10.58 33.585 10.91 35.625 11.25 C35.625 11.91 35.625 12.57 35.625 13.25 C37.605 13.58 39.585 13.91 41.625 14.25 C41.625 14.91 41.625 15.57 41.625 16.25 C42.181875 16.518125 42.73875 16.78625 43.3125 17.0625 C45.83725334 18.35899496 48.26214484 19.67476323 50.625 21.25 C50.625 21.91 50.625 22.57 50.625 23.25 C51.223125 23.353125 51.82125 23.45625 52.4375 23.5625 C54.93758286 24.34824033 56.00035082 25.21918853 57.625 27.25 C57.625 27.91 57.625 28.57 57.625 29.25 C58.285 29.25 58.945 29.25 59.625 29.25 C64.84451366 33.57473989 68.34212605 39.37488553 71.625 45.25 C71.625 45.91 71.625 46.57 71.625 47.25 C72.285 47.25 72.945 47.25 73.625 47.25 C73.955 49.23 74.285 51.21 74.625 53.25 C75.285 53.25 75.945 53.25 76.625 53.25 C88.45634896 81.90943267 81.88292413 110.69329018 70.625 138.25 C71.285 137.92 71.945 137.59 72.625 137.25 C75.31572751 136.88375899 77.995869 136.56333777 80.6953125 136.27734375 C81.88965408 136.1462899 81.88965408 136.1462899 83.10812378 136.0125885 C85.65503831 135.73395679 88.20249443 135.46066973 90.75 135.1875 C92.47529869 134.99970028 94.20055966 134.81155362 95.92578125 134.62304688 C100.15842666 134.16133537 104.39156548 133.70441685 108.625 133.25 C108.625 132.59 108.625 131.93 108.625 131.25 C110.275 130.59 111.925 129.93 113.625 129.25 C113.625 128.59 113.625 127.93 113.625 127.25 C114.429375 126.981875 115.23375 126.71375 116.0625 126.4375 C116.908125 126.045625 117.75375 125.65375 118.625 125.25 C118.955 124.26 119.285 123.27 119.625 122.25 C122.0625 119.5625 122.0625 119.5625 124.625 117.25 C125.285 117.25 125.945 117.25 126.625 117.25 C126.8725 116.569375 127.12 115.88875 127.375 115.1875 C130.84722222 107.02777778 130.84722222 107.02777778 133.625 104.25 C140.345 104.97 140.345 104.97 141.625 106.25 C141.77635944 108.0372057 141.84675778 109.83161876 141.875 111.625 C141.90078125 112.60210937 141.9265625 113.57921875 141.953125 114.5859375 C141.57384522 117.66532806 140.95381683 118.32469103 138.625 120.25 C137.8825 121.4875 137.8825 121.4875 137.125 122.75 C135.625 125.25 135.625 125.25 133.9375 126.8125 C132.17548709 128.41789842 132.17548709 128.41789842 132.625 132.25 C133.718125 132.188125 134.81125 132.12625 135.9375 132.0625 C139.625 132.25 139.625 132.25 141.5 133.625 C144.00428794 137.2423048 144.05664903 139.86156823 143.625 144.25 C142.47520016 146.09300046 141.16556881 147.7147591 139.8046875 149.40625 C137.79626826 152.54523637 137.81812368 155.58065009 137.625 159.25 C147.88991305 159.58412014 154.50605933 158.11929874 163.24609375 152.6484375 C165.942094 151.06359663 168.60276265 150.04532562 171.625 149.25 C171.625 148.59 171.625 147.93 171.625 147.25 C174.58687272 145.07796 177.13185991 143.41438003 180.625 142.25 C181.94758225 140.3862838 181.94758225 140.3862838 183.1875 138.125 C186.89298334 132.32591858 192.2994472 127.43536783 199.0625 125.58203125 C212.2782312 123.86962705 212.2782312 123.86962705 217.25 127 C220.90223035 130.4600077 221.50278678 132.00749889 222 137.0625 C221.82686885 141.5061996 220.72206295 145.00074723 217.625 148.25 C209.04156435 154.24324961 200.09980807 157.13839595 189.625 156.25 C188.635 155.92 187.645 155.59 186.625 155.25 C186.955 157.89 187.285 160.53 187.625 163.25 C188.285 163.25 188.945 163.25 189.625 163.25 C189.625 163.91 189.625 164.57 189.625 165.25 C197.92163351 166.1951861 205.0925834 164.61969226 213.0625 162.4375 C214.50133545 162.04667236 214.50133545 162.04667236 215.96923828 161.64794922 C220.60531285 160.32487044 224.60500387 158.99594224 228.625 156.25 C229.7696875 155.816875 229.7696875 155.816875 230.9375 155.375 C235.89632667 153.29921209 240.29461635 150.343871 244.4375 146.9375 C246.625 145.25 246.625 145.25 249.625 145.25 C249.625 144.59 249.625 143.93 249.625 143.25 C255.60246772 137.56302604 262.17215782 132.78248096 269.625 129.25 C270.25664062 128.93160156 270.88828125 128.61320313 271.5390625 128.28515625 C277.33454035 125.69746346 283.37165853 125.42885415 289.625 126.25 C292.625 128 292.625 128 294.625 130.25 C295.7696875 131.36375 295.7696875 131.36375 296.9375 132.5 C297.494375 133.0775 298.05125 133.655 298.625 134.25 C299.140625 133.755 299.65625 133.26 300.1875 132.75 C303.43180017 130.75350759 305.88717334 131.03435615 309.625 131.25 C312.10459314 134.96938971 312.36901714 138.9276147 311.625 143.25 C309.75 145.75 309.75 145.75 307.625 147.25 C306.965 147.25 306.305 147.25 305.625 147.25 C305.625 147.91 305.625 148.57 305.625 149.25 C304.965 149.25 304.305 149.25 303.625 149.25 C303.33625 149.971875 303.0475 150.69375 302.75 151.4375 C301.70833333 154.04166667 300.66666667 156.64583333 299.625 159.25 C306.885 158.26 314.145 157.27 321.625 156.25 C321.625 155.59 321.625 154.93 321.625 154.25 C324.265 153.59 326.905 152.93 329.625 152.25 C329.625 151.59 329.625 150.93 329.625 150.25 C330.20507812 149.93546875 330.78515625 149.6209375 331.3828125 149.296875 C335.03497161 147.29602215 338.63622001 145.30953999 342.0625 142.9375 C344.625 141.25 344.625 141.25 346.625 141.25 C347.285 139.27 347.945 137.29 348.625 135.25 C349.285 135.25 349.945 135.25 350.625 135.25 C350.769375 134.445625 350.91375 133.64125 351.0625 132.8125 C351.625 130.25 351.625 130.25 352.625 129.25 C354.29117115 129.20936168 355.95888095 129.207279 357.625 129.25 C360.23937258 133.17155886 359.84203011 136.69236768 359.625 141.25 C359.295 142.24 358.965 143.23 358.625 144.25 C359.3675 143.486875 360.11 142.72375 360.875 141.9375 C366.69476744 136.25 366.69476744 136.25 369.625 136.25 C369.625 135.59 369.625 134.93 369.625 134.25 C375.26971044 129.0152406 383.41765723 122.77591785 391.125 121.8125 C393.625 122.25 393.625 122.25 395.625 123.25 C395.625 123.91 395.625 124.57 395.625 125.25 C396.285 125.25 396.945 125.25 397.625 125.25 C398.88737731 127.77475462 398.72356404 129.56200466 398.6875 132.375 C398.67847656 133.28507813 398.66945313 134.19515625 398.66015625 135.1328125 C398.64275391 136.18082031 398.64275391 136.18082031 398.625 137.25 C397.965 137.25 397.305 137.25 396.625 137.25 C396.686875 138.796875 396.686875 138.796875 396.75 140.375 C396.6057894 144.8455286 395.61443912 148.27112176 393.625 152.25 C394.17929687 151.8890625 394.73359375 151.528125 395.3046875 151.15625 C396.02914062 150.6921875 396.75359375 150.228125 397.5 149.75 C398.21929688 149.2859375 398.93859375 148.821875 399.6796875 148.34375 C401.625 147.25 401.625 147.25 403.625 147.25 C403.955 146.26 404.285 145.27 404.625 144.25 C406.58624688 143.17598385 408.59584231 142.18942486 410.625 141.25 C411.81861871 140.57317884 413.00612291 139.88546896 414.1875 139.1875 C419.32310132 136.29288835 422.68075799 134.97352363 428.625 135.25 C430.40169223 138.31156654 430.86550818 140.49036215 430.8203125 144.015625 C430.81386719 144.90507812 430.80742188 145.79453125 430.80078125 146.7109375 C430.78402344 147.63132812 430.76726563 148.55171875 430.75 149.5 C430.74097656 150.43585938 430.73195313 151.37171875 430.72265625 152.3359375 C430.69913636 154.64088657 430.66626853 156.9453116 430.625 159.25 C442.78130813 158.92583178 451.45039941 157.34855855 461.625 150.25 C462.388125 149.95609375 463.15125 149.6621875 463.9375 149.359375 C468.0285641 147.6706218 471.52143677 145.14952095 475.19921875 142.7109375 C477.625 141.25 477.625 141.25 479.625 141.25 C479.625 140.59 479.625 139.93 479.625 139.25 C480.285 139.25 480.945 139.25 481.625 139.25 C481.955 137.27 482.285 135.29 482.625 133.25 C483.285 133.25 483.945 133.25 484.625 133.25 C484.89054688 132.39148438 485.15609375 131.53296875 485.4296875 130.6484375 C486.63523801 127.22089192 488.09744386 124.10826202 489.75 120.875 C490.28882813 119.81539063 490.82765625 118.75578125 491.3828125 117.6640625 C491.79273438 116.86742187 492.20265625 116.07078125 492.625 115.25 C493.285 115.25 493.945 115.25 494.625 115.25 C494.73714844 114.52425781 494.84929688 113.79851562 494.96484375 113.05078125 C495.65461387 110.12436007 496.68010814 108.02712191 498.1875 105.4375 C498.64253906 104.64730469 499.09757813 103.85710937 499.56640625 103.04296875 C499.91574219 102.45128906 500.26507812 101.85960937 500.625 101.25 C501.285 101.25 501.945 101.25 502.625 101.25 C502.70878906 100.56550781 502.79257812 99.88101563 502.87890625 99.17578125 C503.81315417 95.51215981 505.56916451 92.60214059 507.5625 89.4375 C507.92279297 88.84001953 508.28308594 88.24253906 508.65429688 87.62695312 C509.58406384 86.12870985 510.59851929 84.68371436 511.625 83.25 C512.285 83.25 512.945 83.25 513.625 83.25 C513.73908203 82.20972656 513.73908203 82.20972656 513.85546875 81.1484375 C514.82523893 77.49580059 516.73248579 74.87194048 518.9375 71.875 C522.10206467 67.45285995 525.05863186 63.04799261 527.625 58.25 C528.285 58.25 528.945 58.25 529.625 58.25 C529.73972656 57.66734375 529.85445312 57.0846875 529.97265625 56.484375 C530.67324062 54.08476865 531.60692595 52.52139067 533.0625 50.5 C533.49433594 49.88640625 533.92617188 49.2728125 534.37109375 48.640625 C534.78488281 48.18171875 535.19867187 47.7228125 535.625 47.25 C536.285 47.25 536.945 47.25 537.625 47.25 C537.8725 46.569375 538.12 45.88875 538.375 45.1875 C539.86697908 41.68134917 541.69335511 38.53379632 543.625 35.25 C544.285 35.25 544.945 35.25 545.625 35.25 C545.955 33.93 546.285 32.61 546.625 31.25 C547.285 31.25 547.945 31.25 548.625 31.25 C548.83125 30.59 549.0375 29.93 549.25 29.25 C551.13652871 25.13393737 553.83067979 21.7912297 556.625 18.25 C557.945 18.58 559.265 18.91 560.625 19.25 C560.955 20.57 561.285 21.89 561.625 23.25 C562.285 23.25 562.945 23.25 563.625 23.25 C563.625 26.22 563.625 29.19 563.625 32.25 C562.965 32.25 562.305 32.25 561.625 32.25 C561.36332031 32.98863281 561.10164062 33.72726563 560.83203125 34.48828125 C559.61299767 37.27746165 558.26939229 39.12480911 556.3125 41.4375 C552.60956467 46.03905562 550.05477639 50.88657655 547.625 56.25 C546.965 56.25 546.305 56.25 545.625 56.25 C545.625 56.91 545.625 57.57 545.625 58.25 C544.965 58.25 544.305 58.25 543.625 58.25 C543.625 59.24 543.625 60.23 543.625 61.25 C542.965 61.25 542.305 61.25 541.625 61.25 C540.965 63.23 540.305 65.21 539.625 67.25 C538.965 67.25 538.305 67.25 537.625 67.25 C537.356875 67.971875 537.08875 68.69375 536.8125 69.4375 C535.62598638 72.24766383 534.35014361 74.73416557 532.625 77.25 C531.965 77.25 531.305 77.25 530.625 77.25 C530.295 78.9 529.965 80.55 529.625 82.25 C528.965 82.25 528.305 82.25 527.625 82.25 C527.47611328 83.09691406 527.47611328 83.09691406 527.32421875 83.9609375 C526.4770165 86.73445993 525.15821156 88.54273311 523.4375 90.875 C517.09765873 99.55797926 517.09765873 99.55797926 512.625 109.25 C511.965 109.25 511.305 109.25 510.625 109.25 C510.625 109.91 510.625 110.57 510.625 111.25 C509.965 111.25 509.305 111.25 508.625 111.25 C508.625 112.57 508.625 113.89 508.625 115.25 C507.965 115.25 507.305 115.25 506.625 115.25 C506.398125 116.03375 506.17125 116.8175 505.9375 117.625 C504.21839067 122.37301625 501.94415279 126.77102552 499.625 131.25 C498.965 131.25 498.305 131.25 497.625 131.25 C497.625 132.57 497.625 133.89 497.625 135.25 C496.965 135.25 496.305 135.25 495.625 135.25 C495.20347656 136.55324219 495.20347656 136.55324219 494.7734375 137.8828125 C492.48884739 144.58116852 489.77144185 151.15884814 486.5 157.4375 C482.61385012 165.09921827 481.13965204 171.63956759 481.625 180.25 C488.56195602 180.00313324 492.91258953 179.46630297 498.625 175.25 C501.5 175 501.5 175 503.625 175.25 C503.625 174.59 503.625 173.93 503.625 173.25 C505.26953125 171.99609375 505.26953125 171.99609375 507.4375 170.6875 C508.14519531 170.25308594 508.85289062 169.81867188 509.58203125 169.37109375 C511.625 168.25 511.625 168.25 514.625 167.25 C515.429375 166.425 516.23375 165.6 517.0625 164.75 C519.60315818 162.27130909 520.3738745 161.94666975 523.625 161.25 C523.955 160.26 524.285 159.27 524.625 158.25 C526.78244885 156.57556209 528.93053003 155.02742093 531.1875 153.5 C532.47706984 152.59632662 533.76484316 151.69008397 535.05078125 150.78125 C535.67162598 150.34296875 536.2924707 149.9046875 536.93212891 149.453125 C543.90060116 144.50062554 548.54296269 138.9731317 553.21386719 131.87207031 C554.28098263 130.28214569 555.44650844 128.75922276 556.625 127.25 C557.615 127.25 558.605 127.25 559.625 127.25 C559.625 125.93 559.625 124.61 559.625 123.25 C562.4375 122.625 562.4375 122.625 565.625 122.25 C568.625 124.25 568.625 124.25 569.3125 126.1328125 C570.11025076 131.85667417 569.23533095 134.97318969 565.94921875 139.71875 C564.625 141.25 564.625 141.25 562.625 142.25 C562.13 143.095625 561.635 143.94125 561.125 144.8125 C560.3825 146.0190625 560.3825 146.0190625 559.625 147.25 C558.965 147.25 558.305 147.25 557.625 147.25 C557.295 148.57 556.965 149.89 556.625 151.25 C555.965 151.25 555.305 151.25 554.625 151.25 C553.965 153.23 553.305 155.21 552.625 157.25 C551.965 157.25 551.305 157.25 550.625 157.25 C550.625 158.57 550.625 159.89 550.625 161.25 C564.72858696 160.96109971 576.64270352 156.09824525 588.89453125 149.60546875 C591.625 148.25 591.625 148.25 593.625 148.25 C593.625 147.59 593.625 146.93 593.625 146.25 C594.285 145.92 594.945 145.59 595.625 145.25 C596.28055119 142.72266765 596.28055119 142.72266765 596.625 140.25 C598.61067708 140.31510417 600.59635417 140.38020833 602.58203125 140.4453125 C604.93859719 140.38254462 604.93859719 140.38254462 607.625 138.25 C608.70440062 136.57499492 608.70440062 136.57499492 609.5625 134.625 C610.06330078 133.56925781 610.06330078 133.56925781 610.57421875 132.4921875 C610.92097656 131.75226563 611.26773438 131.01234375 611.625 130.25 C612.37092393 128.74796888 613.12073866 127.24786175 613.875 125.75 C614.4525 124.595 615.03 123.44 615.625 122.25 C616.285 122.25 616.945 122.25 617.625 122.25 C617.955 120.6 618.285 118.95 618.625 117.25 C619.285 117.25 619.945 117.25 620.625 117.25 C620.89054688 116.71890625 621.15609375 116.1878125 621.4296875 115.640625 C623.828125 110.84375 626.2265625 106.046875 628.625 101.25 C629.285 101.25 629.945 101.25 630.625 101.25 C630.72941406 100.69828125 630.83382812 100.1465625 630.94140625 99.578125 C631.77060384 96.75411491 633.0529965 94.52445084 634.5625 92 C635.08714844 91.10796875 635.61179687 90.2159375 636.15234375 89.296875 C636.63832031 88.62140625 637.12429688 87.9459375 637.625 87.25 C638.285 87.25 638.945 87.25 639.625 87.25 C639.934375 86.30125 640.24375 85.3525 640.5625 84.375 C641.625 81.25 641.625 81.25 642.625 79.25 C643.285 79.25 643.945 79.25 644.625 79.25 C646.03877341 76.61095629 646.99740135 74.17879371 647.625 71.25 C648.285 71.25 648.945 71.25 649.625 71.25 C649.851875 70.54875 650.07875 69.8475 650.3125 69.125 C651.90660347 65.63315429 654.16656901 63.18812484 656.625 60.25 C657.64122658 58.25819591 658.64212992 56.25847365 659.625 54.25 C662.74605927 49.46437579 662.74605927 49.46437579 666.1875 48.625 C668.625 49.25 668.625 49.25 670.4375 51.3125 C671.90127121 54.93340772 672.11806528 57.37591566 671.625 61.25 C669.75 63.4375 669.75 63.4375 667.625 65.25 C666.38987921 67.38309192 666.38987921 67.38309192 665.625 69.25 C664.965 69.25 664.305 69.25 663.625 69.25 C663.39554688 69.91128906 663.16609375 70.57257813 662.9296875 71.25390625 C661.2325155 75.15130422 659.0299459 78.60805141 656.75 82.1875 C656.31558594 82.87779297 655.88117187 83.56808594 655.43359375 84.27929688 C653.45783927 87.4090581 651.4558416 90.51078265 649.3671875 93.56640625 C647.50664397 96.18617258 647.50664397 96.18617258 646.625 99.25 C645.965 99.25 645.305 99.25 644.625 99.25 C644.295 100.9 643.965 102.55 643.625 104.25 C642.965 104.25 642.305 104.25 641.625 104.25 C641.625 104.91 641.625 105.57 641.625 106.25 C640.965 106.25 640.305 106.25 639.625 106.25 C639.563125 106.91 639.50125 107.57 639.4375 108.25 C638.32121505 112.3716675 636.28738434 115.90750502 633.625 119.25 C632.965 119.25 632.305 119.25 631.625 119.25 C631.398125 120.03375 631.17125 120.8175 630.9375 121.625 C629.21839067 126.37301625 626.94415279 130.77102552 624.625 135.25 C623.965 135.25 623.305 135.25 622.625 135.25 C622.480625 135.86875 622.33625 136.4875 622.1875 137.125 C621.625 139.25 621.625 139.25 620.625 141.25 C619.965 141.25 619.305 141.25 618.625 141.25 C618.625 142.24 618.625 143.23 618.625 144.25 C635.06796862 143.90027419 635.06796862 143.90027419 651.3203125 141.65234375 C653.79579204 141.22018376 656.1170837 141.18306273 658.625 141.25 C658.893125 140.486875 659.16125 139.72375 659.4375 138.9375 C660.57634505 136.36011382 661.43916671 134.98045136 663.625 133.25 C664.285 133.25 664.945 133.25 665.625 133.25 C665.87765625 132.63640625 666.1303125 132.0228125 666.390625 131.390625 C668.23587506 128.19063439 670.43122949 127.39542594 673.76171875 126 C679.29233537 124.55132552 684.95705082 124.9597494 690.625 125.25 C690.625 125.91 690.625 126.57 690.625 127.25 C691.223125 127.3325 691.82125 127.415 692.4375 127.5 C695.44792478 128.53214564 696.1382649 129.41812362 697.625 132.25 C698.92884484 137.14873134 699.14844768 140.22115456 696.8125 144.8125 C696.090625 145.616875 695.36875 146.42125 694.625 147.25 C693.965 147.25 693.305 147.25 692.625 147.25 C692.625 147.91 692.625 148.57 692.625 149.25 C691.0859375 150.46875 691.0859375 150.46875 689 151.75 C688.32710937 152.1728125 687.65421875 152.595625 686.9609375 153.03125 C681.92752879 155.65737628 677.59721549 156.50980763 671.9375 156.4375 C670.81988281 156.43105469 669.70226562 156.42460937 668.55078125 156.41796875 C665.625 156.25 665.625 156.25 662.625 155.25 C662.72907917 158.65080577 662.72907917 158.65080577 663.625 162.25 C667.67170257 165.65815444 671.51666341 165.6292492 676.5625 165.25 C677.30669189 165.20020996 678.05088379 165.15041992 678.81762695 165.09912109 C687.43718542 164.34432435 695.15484414 161.56947186 702.83203125 157.5859375 C705.625 156.25 705.625 156.25 708.625 156.25 C708.625 155.59 708.625 154.93 708.625 154.25 C710.41381736 153.24491199 712.20614696 152.24607264 714 151.25 C714.99773438 150.693125 715.99546875 150.13625 717.0234375 149.5625 C719.625 148.25 719.625 148.25 721.625 148.25 C721.625 147.59 721.625 146.93 721.625 146.25 C722.285 146.25 722.945 146.25 723.625 146.25 C723.625 145.59 723.625 144.93 723.625 144.25 C725.00981328 143.37808053 726.40845246 142.52809616 727.8125 141.6875 C728.58980469 141.21183594 729.36710938 140.73617187 730.16796875 140.24609375 C733.16784753 139.02992668 734.60187388 139.15760989 737.625 140.25 C739.71599601 143.38649402 740.27430476 145.47835252 740.21875 149.2421875 C739.20261132 152.67834065 736.58326221 153.79603636 733.5703125 155.4375 C731.625 156.25 731.625 156.25 729.625 156.25 C729.625 156.91 729.625 157.57 729.625 158.25 C726.655 159.24 726.655 159.24 723.625 160.25 C723.625 160.91 723.625 161.57 723.625 162.25 C722.92632813 162.58773437 722.22765625 162.92546875 721.5078125 163.2734375 C720.59773437 163.71945312 719.68765625 164.16546875 718.75 164.625 C717.39261719 165.28628906 717.39261719 165.28628906 716.0078125 165.9609375 C713.52965528 167.15502699 713.52965528 167.15502699 711.625 169.25 C709.05129547 170.31179738 706.49034111 171.30322777 703.875 172.25 C703.17117188 172.51039063 702.46734375 172.77078125 701.7421875 173.0390625 C700.34604057 173.55288609 698.94684207 174.05849595 697.54467773 174.55566406 C695.94673184 175.13363152 694.3702887 175.7706271 692.80078125 176.421875 C688.06098619 177.65783632 683.43897181 177.53862552 678.5625 177.5 C677.58216797 177.50773438 676.60183594 177.51546875 675.59179688 177.5234375 C674.64240234 177.52085937 673.69300781 177.51828125 672.71484375 177.515625 C671.42888306 177.51224121 671.42888306 177.51224121 670.11694336 177.50878906 C667.33163695 177.21953416 665.16784217 176.39608574 662.625 175.25 C662.625 174.59 662.625 173.93 662.625 173.25 C661.965 173.25 661.305 173.25 660.625 173.25 C660.625 172.59 660.625 171.93 660.625 171.25 C659.635 170.92 658.645 170.59 657.625 170.25 C653.5646846 165.40885471 654.32573485 162.2573485 653.625 155.25 C642.075 155.91 630.525 156.57 618.625 157.25 C619.285 159.89 619.945 162.53 620.625 165.25 C622.34991866 179.59165325 620.38553569 193.96363455 617.8125 208.0625 C617.61672363 209.15544876 617.61672363 209.15544876 617.41699219 210.27047729 C617.03701855 212.35682603 616.63840081 214.43848517 616.23046875 216.51953125 C615.99481201 217.72198486 615.75915527 218.92443848 615.51635742 220.16333008 C614.63406791 223.21859887 613.62412609 224.83725001 611.625 227.25 C610.76783673 230.01148856 610.76783673 230.01148856 610.1875 233 C609.14560389 237.48232388 607.86497097 241.21855891 605.66796875 245.2421875 C604.04014134 248.37590769 602.82325125 251.66114964 601.5546875 254.953125 C600.67885975 257.11693473 599.69876886 259.17848132 598.625 261.25 C597.965 261.25 597.305 261.25 596.625 261.25 C596.356875 261.971875 596.08875 262.69375 595.8125 263.4375 C593.76735145 268.28127287 591.0439566 272.1385405 587.5625 276.0625 C586.87027344 276.85269531 586.17804687 277.64289063 585.46484375 278.45703125 C583.625 280.25 583.625 280.25 581.625 280.25 C581.625 280.91 581.625 281.57 581.625 282.25 C577.68320852 285.84902701 574.95507663 287.60854476 569.5625 287.8125 C564.16193464 287.50155836 561.00734198 285.79658149 557.28637695 281.8190918 C553.31002374 276.85706367 552.89878981 272.86125787 553.125 266.625 C553.14272461 265.74489258 553.16044922 264.86478516 553.17871094 263.95800781 C553.49079586 254.37454594 555.00857519 245.54828827 559.70703125 237.10546875 C561.26586355 233.95463751 561.89096784 230.6754834 562.625 227.25 C563.285 227.25 563.945 227.25 564.625 227.25 C564.75777344 226.63511719 564.89054688 226.02023437 565.02734375 225.38671875 C565.20394531 224.57847656 565.38054688 223.77023437 565.5625 222.9375 C565.73652344 222.13699219 565.91054688 221.33648437 566.08984375 220.51171875 C566.625 218.25 566.625 218.25 567.625 215.25 C568.285 215.25 568.945 215.25 569.625 215.25 C569.810625 214.198125 569.810625 214.198125 570 213.125 C570.66338345 210.07343613 571.59711955 207.19659062 572.625 204.25 C573.285 204.25 573.945 204.25 574.625 204.25 C574.7075 203.404375 574.79 202.55875 574.875 201.6875 C575.64417235 198.16212672 576.80532873 195.930455 578.65234375 192.8984375 C579.90698374 190.77209984 580.72810489 188.54829371 581.625 186.25 C582.63496986 184.19355534 583.67279139 182.15352916 584.72265625 180.1171875 C585.74502876 178.10335678 585.74502876 178.10335678 586.625 175.25 C587.285 175.25 587.945 175.25 588.625 175.25 C588.74746094 174.68796875 588.86992188 174.1259375 588.99609375 173.546875 C589.6769869 171.06013481 590.61852325 168.84485224 591.6875 166.5 C592.04972656 165.70078125 592.41195312 164.9015625 592.78515625 164.078125 C593.06230469 163.47484375 593.33945312 162.8715625 593.625 162.25 C592.965 162.25 592.305 162.25 591.625 162.25 C591.625 162.91 591.625 163.57 591.625 164.25 C579.36515591 170.86814593 565.03454397 176.76774853 550.828125 173.6328125 C548.625 172.8125 548.625 172.8125 545.625 171.25 C545.625 170.59 545.625 169.93 545.625 169.25 C544.965 169.25 544.305 169.25 543.625 169.25 C542.965 167.6 542.305 165.95 541.625 164.25 C540.201875 165.24 540.201875 165.24 538.75 166.25 C535.625 168.25 535.625 168.25 533.625 168.25 C533.625 168.91 533.625 169.57 533.625 170.25 C530.16346154 173.25 530.16346154 173.25 527.625 173.25 C527.625 173.91 527.625 174.57 527.625 175.25 C518.21497722 180.62129841 518.21497722 180.62129841 513.625 182.25 C513.625 182.91 513.625 183.57 513.625 184.25 C508.27493984 187.53767869 503.94131828 189.84683075 497.625 190.25 C497.625 190.91 497.625 191.57 497.625 192.25 C492.345 192.25 487.065 192.25 481.625 192.25 C481.625 191.59 481.625 190.93 481.625 190.25 C480.696875 190.0953125 480.696875 190.0953125 479.75 189.9375 C477.625 189.25 477.625 189.25 475.625 186.25 C475.625 185.26 475.625 184.27 475.625 183.25 C474.965 183.25 474.305 183.25 473.625 183.25 C472.46328222 180.92656444 472.49596031 179.55366684 472.4921875 176.96875 C472.49089844 176.12699219 472.48960937 175.28523437 472.48828125 174.41796875 C472.49214844 173.53753906 472.49601563 172.65710938 472.5 171.75 C472.49613281 170.86957031 472.49226562 169.98914063 472.48828125 169.08203125 C472.48957031 168.24027344 472.49085938 167.39851562 472.4921875 166.53125 C472.49387939 165.37206055 472.49387939 165.37206055 472.49560547 164.18945312 C472.625 162.25 472.625 162.25 473.625 160.25 C472.635 160.25 471.645 160.25 470.625 160.25 C470.625 160.91 470.625 161.57 470.625 162.25 C467.325 163.24 464.025 164.23 460.625 165.25 C460.625 165.91 460.625 166.57 460.625 167.25 C451.51781619 171.57205334 443.46000914 171.69424132 433.625 171.25 C433.625 170.59 433.625 169.93 433.625 169.25 C432.75875 168.8478125 432.75875 168.8478125 431.875 168.4375 C427.35436758 166.05161067 425.19369322 164.09984858 423.375 159.25 C423.03984375 158.38375 422.7046875 157.5175 422.359375 156.625 C421.625 154.25 421.625 154.25 421.625 151.25 C420.78195312 151.683125 419.93890625 152.11625 419.0703125 152.5625 C417.97460938 153.119375 416.87890625 153.67625 415.75 154.25 C414.11417969 155.0853125 414.11417969 155.0853125 412.4453125 155.9375 C409.625 157.25 409.625 157.25 407.625 157.25 C407.625 157.91 407.625 158.57 407.625 159.25 C405.09417897 160.79193728 402.55294722 162.30800484 400 163.8125 C399.28714844 164.25013672 398.57429687 164.68777344 397.83984375 165.13867188 C394.22877024 167.24237066 392.37248425 168.2972357 388.1015625 168.02734375 C387.28429687 167.77082031 386.46703125 167.51429688 385.625 167.25 C385.625 166.59 385.625 165.93 385.625 165.25 C384.965 165.25 384.305 165.25 383.625 165.25 C382.22322133 156.68357481 383.09806114 149.50466695 385.625 141.25 C385.625 140.59 385.625 139.93 385.625 139.25 C384.965 139.25 384.305 139.25 383.625 139.25 C383.625 139.91 383.625 140.57 383.625 141.25 C382.985625 141.53875 382.34625 141.8275 381.6875 142.125 C379.47293921 143.07823451 379.47293921 143.07823451 378.625 145.25 C377.635 145.559375 376.645 145.86875 375.625 146.1875 C374.635 146.538125 373.645 146.88875 372.625 147.25 C372.295 148.24 371.965 149.23 371.625 150.25 C370.03125 151.56640625 370.03125 151.56640625 368.125 152.8125 C365.36963406 154.56619395 365.36963406 154.56619395 363.625 157.25 C362.965 157.25 362.305 157.25 361.625 157.25 C361.625 157.91 361.625 158.57 361.625 159.25 C359.9288631 160.48053069 358.22839832 161.70583583 356.5 162.890625 C353.09922671 165.35618564 350.34796066 168.43940774 347.5625 171.5625 C345.625 173.25 345.625 173.25 341.625 173.25 C338.65086069 169.63854512 338.30480263 166.8394956 338.625 162.25 C337.635 162.25 336.645 162.25 335.625 162.25 C335.625 162.91 335.625 163.57 335.625 164.25 C335.04234375 164.40855469 334.4596875 164.56710937 333.859375 164.73046875 C328.95187599 166.12709976 324.43551563 167.77065379 319.8125 169.9375 C313.49525805 172.63905954 307.42680625 173.34559295 300.625 172.25 C297.74609375 170.84375 297.74609375 170.84375 295.625 169.25 C295.625 168.59 295.625 167.93 295.625 167.25 C294.965 167.25 294.305 167.25 293.625 167.25 C293.295 165.93 292.965 164.61 292.625 163.25 C291.965 163.25 291.305 163.25 290.625 163.25 C290.295 162.26 289.965 161.27 289.625 160.25 C286.78511113 161.22367618 284.70836221 162.18154458 282.375 164.09765625 C275.63416254 169.37351057 266.37402242 174.56246509 257.625 174.25 C252.37034349 172.49844783 249.78325309 169.61582045 246.625 165.25 C246.625 164.59 246.625 163.93 246.625 163.25 C243.68546881 164.53707907 240.74874889 165.83045244 237.8125 167.125 C236.56243164 167.67220703 236.56243164 167.67220703 235.28710938 168.23046875 C234.08344727 168.76220703 234.08344727 168.76220703 232.85546875 169.3046875 C232.11707764 169.62937012 231.37868652 169.95405273 230.61791992 170.28857422 C228.39061139 171.30653856 228.39061139 171.30653856 225.625 173.25 C223.58203125 173.6640625 223.58203125 173.6640625 221.4375 173.875 C220.179375 173.99875 218.92125 174.1225 217.625 174.25 C217.625 174.91 217.625 175.57 217.625 176.25 C213.5372638 177.39152811 209.59158602 177.39699958 205.375 177.375 C204.64925781 177.37886719 203.92351562 177.38273438 203.17578125 177.38671875 C189.00151504 177.36145268 189.00151504 177.36145268 183.625 173.25 C181.625 170.25 181.625 170.25 181.625 167.25 C180.965 167.25 180.305 167.25 179.625 167.25 C178.965 165.6 178.305 163.95 177.625 162.25 C174.18348291 162.80064273 171.59500478 164.37897347 168.625 166.1328125 C160.00438109 170.94823634 152.53010029 173.02970177 142.625 172.25 C136.68742568 170.19468581 131.02667845 166.0533569 128.1875 160.375 C126.9366845 153.42602502 127.71327138 147.94105018 129.625 141.25 C128.305 140.59 126.985 139.93 125.625 139.25 C125.625 138.59 125.625 137.93 125.625 137.25 C123.87370343 138.35210905 122.12401536 139.45677432 120.375 140.5625 C119.40046875 141.17738281 118.4259375 141.79226563 117.421875 142.42578125 C114.6704842 144.16654708 114.6704842 144.16654708 112.390625 145.98046875 C110.625 147.25 110.625 147.25 108.625 147.25 C108.295 148.24 107.965 149.23 107.625 150.25 C104.66835481 151.7283226 101.88270263 151.31032783 98.625 151.25 C98.295 149.93 97.965 148.61 97.625 147.25 C89.61598168 148.53179545 81.61679499 149.86482589 73.625 151.25 C72.84479492 151.3830957 72.06458984 151.51619141 71.26074219 151.65332031 C69.4400955 151.97305652 67.62574489 152.32815534 65.8125 152.6875 C64.85730469 152.87183594 63.90210938 153.05617188 62.91796875 153.24609375 C59.8491926 154.58966355 59.12716509 156.32235692 57.625 159.25 C55.81619353 161.17185687 53.93814271 162.96094519 52 164.75 C50.52970793 166.18987734 50.52970793 166.18987734 49.8125 168.125 C48.0474967 171.28342695 45.43323567 172.97951159 42.625 175.25 C42.295 175.91 41.965 176.57 41.625 177.25 C40.965 177.25 40.305 177.25 39.625 177.25 C39.625 177.91 39.625 178.57 39.625 179.25 C38.965 179.25 38.305 179.25 37.625 179.25 C37.625 179.91 37.625 180.57 37.625 181.25 C36.965 181.25 36.305 181.25 35.625 181.25 C35.625 181.91 35.625 182.57 35.625 183.25 C34.965 183.25 34.305 183.25 33.625 183.25 C33.625 183.91 33.625 184.57 33.625 185.25 C32.820625 185.518125 32.01625 185.78625 31.1875 186.0625 C30.341875 186.454375 29.49625 186.84625 28.625 187.25 C28.295 188.24 27.965 189.23 27.625 190.25 C26.965 190.25 26.305 190.25 25.625 190.25 C25.625 190.91 25.625 191.57 25.625 192.25 C20.21323529 196.25 20.21323529 196.25 17.625 196.25 C17.625 196.91 17.625 197.57 17.625 198.25 C15.9453125 199.5390625 15.9453125 199.5390625 13.75 200.875 C13.03070313 201.32101562 12.31140625 201.76703125 11.5703125 202.2265625 C9.625 203.25 9.625 203.25 7.625 203.25 C7.625 203.91 7.625 204.57 7.625 205.25 C7.07972656 205.54132813 6.53445312 205.83265625 5.97265625 206.1328125 C1.85466281 208.3713115 -2.09046053 210.69413626 -5.9375 213.375 C-9.28175764 215.64678881 -12.37529032 217.14239754 -16.19140625 218.421875 C-18.79873884 219.41070239 -21.16402364 220.6883997 -23.625 222 C-47.417814 234.04585935 -74.04249113 239.32482388 -100.5 239.5625 C-101.76312012 239.58030518 -103.02624023 239.59811035 -104.32763672 239.61645508 C-115.17770816 239.6072541 -127.91430933 238.99498269 -136.375 231.25 C-136.375 230.59 -136.375 229.93 -136.375 229.25 C-137.035 229.25 -137.695 229.25 -138.375 229.25 C-140.375 226.25 -140.375 226.25 -140.375 223.25 C-141.035 223.25 -141.695 223.25 -142.375 223.25 C-144.68926642 218.62146715 -143.70255096 212.43737222 -142.375 207.625 C-142.045 206.84125 -141.715 206.0575 -141.375 205.25 C-140.715 205.25 -140.055 205.25 -139.375 205.25 C-139.1378125 204.51394531 -138.900625 203.77789062 -138.65625 203.01953125 C-137.1773873 199.82284328 -135.53124763 198.22721996 -132.875 195.9375 C-132.0809375 195.24011719 -131.286875 194.54273438 -130.46875 193.82421875 C-128.375 192.25 -128.375 192.25 -126.375 192.25 C-126.375 191.59 -126.375 190.93 -126.375 190.25 C-124.725 189.92 -123.075 189.59 -121.375 189.25 C-121.375 188.59 -121.375 187.93 -121.375 187.25 C-119.725 186.92 -118.075 186.59 -116.375 186.25 C-116.375 185.59 -116.375 184.93 -116.375 184.25 C-114.23782168 183.30014297 -112.10033863 182.35109592 -109.9609375 181.40625 C-108.2716322 180.65091108 -106.58889628 179.88065603 -104.9140625 179.09375 C-104.13804688 178.7328125 -103.36203125 178.371875 -102.5625 178 C-101.85480469 177.66484375 -101.14710937 177.3296875 -100.41796875 176.984375 C-98.375 176.25 -98.375 176.25 -94.375 176.25 C-94.375 175.59 -94.375 174.93 -94.375 174.25 C-93.68792969 174.10304688 -93.00085938 173.95609375 -92.29296875 173.8046875 C-86.29894872 172.44179834 -86.29894872 172.44179834 -82.25 168.0625 C-81.96125 167.134375 -81.6725 166.20625 -81.375 165.25 C-80.715 165.25 -80.055 165.25 -79.375 165.25 C-79.25253906 164.66992188 -79.13007812 164.08984375 -79.00390625 163.4921875 C-78.35759272 161.18793927 -77.501805 159.44721279 -76.3125 157.375 C-75.64734375 156.20710938 -75.64734375 156.20710938 -74.96875 155.015625 C-74.4428125 154.10296875 -73.916875 153.1903125 -73.375 152.25 C-72.36977717 150.48687107 -71.36456579 148.72373559 -70.35961914 146.96044922 C-68.70193126 144.05476084 -67.03793072 141.1526902 -65.375 138.25 C-64.04111086 135.91698376 -62.7080139 133.58351653 -61.375 131.25 C-60.715 131.25 -60.055 131.25 -59.375 131.25 C-59.230625 130.63125 -59.08625 130.0125 -58.9375 129.375 C-58.375 127.25 -58.375 127.25 -57.375 125.25 C-56.715 125.25 -56.055 125.25 -55.375 125.25 C-55.148125 124.38375 -54.92125 123.5175 -54.6875 122.625 C-53.54294028 119.68184642 -52.74313118 118.29238317 -50.75 116 C-48.15712671 113.60332741 -48.15712671 113.60332741 -48.375 111.25 C-49.6125 111.745 -49.6125 111.745 -50.875 112.25 C-54.9623983 113.41782809 -58.14423344 113.3958885 -62.375 113.25 C-62.705 111.93 -63.035 110.61 -63.375 109.25 C-62.65054688 108.93546875 -61.92609375 108.6209375 -61.1796875 108.296875 C-54.78303217 105.51080668 -54.78303217 105.51080668 -48.8125 101.9375 C-46.375 100.25 -46.375 100.25 -44.375 100.25 C-44.375 99.26 -44.375 98.27 -44.375 97.25 C-41.04166667 94.25 -41.04166667 94.25 -38.375 94.25 C-38.28089844 93.67378906 -38.18679687 93.09757812 -38.08984375 92.50390625 C-37.2133291 89.74025076 -35.90150109 88.30666126 -33.9375 86.1875 C-31.84583853 83.91243606 -30.09828194 81.83492291 -28.375 79.25 C-27.715 79.25 -27.055 79.25 -26.375 79.25 C-26.230625 78.63125 -26.08625 78.0125 -25.9375 77.375 C-25.375 75.25 -25.375 75.25 -24.375 73.25 C-23.715 73.25 -23.055 73.25 -22.375 73.25 C-21.715 71.27 -21.055 69.29 -20.375 67.25 C-19.715 67.25 -19.055 67.25 -18.375 67.25 C-18.08625 66.156875 -17.7975 65.06375 -17.5 63.9375 C-16.375 60.25 -16.375 60.25 -14.375 57.25 C-7.42172897 56.46495327 -7.42172897 56.46495327 -3.875 59.125 C-2.375 61.25 -2.375 61.25 -2.375 63.25 C-1.715 63.25 -1.055 63.25 -0.375 63.25 C-0.705 65.23 -1.035 67.21 -1.375 69.25 C-2.035 69.25 -2.695 69.25 -3.375 69.25 C-3.6225 69.930625 -3.87 70.61125 -4.125 71.3125 C-6.90405881 77.84328821 -10.32084539 82.56470281 -15.25 87.5625 C-20.18924636 92.72975758 -23.99969888 97.92270285 -27.375 104.25 C-28.37069004 105.91924507 -29.37088044 107.585812 -30.375 109.25 C-30.88160156 110.13300781 -31.38820312 111.01601563 -31.91015625 111.92578125 C-32.41417969 112.79589844 -32.91820312 113.66601562 -33.4375 114.5625 C-33.94410156 115.44550781 -34.45070312 116.32851563 -34.97265625 117.23828125 C-35.66681641 118.23408203 -35.66681641 118.23408203 -36.375 119.25 C-37.035 119.25 -37.695 119.25 -38.375 119.25 C-38.560625 120.3946875 -38.560625 120.3946875 -38.75 121.5625 C-39.375 124.25 -39.375 124.25 -41.375 127.25 C-42.035 127.25 -42.695 127.25 -43.375 127.25 C-43.705 128.57 -44.035 129.89 -44.375 131.25 C-45.035 131.25 -45.695 131.25 -46.375 131.25 C-46.643125 132.11625 -46.91125 132.9825 -47.1875 133.875 C-48.34611987 137.16791964 -49.75709839 140.16127875 -51.375 143.25 C-52.035 143.25 -52.695 143.25 -53.375 143.25 C-53.63410156 144.12527344 -53.89320312 145.00054687 -54.16015625 145.90234375 C-55.37691205 149.2552689 -56.84979661 151.84523014 -58.8125 154.8125 C-61.07283072 158.25425628 -63.2789297 161.70526949 -65.375 165.25 C-64.81216309 165.08395264 -64.24932617 164.91790527 -63.66943359 164.74682617 C-61.0311368 163.97178953 -58.3905997 163.20465225 -55.75 162.4375 C-54.86570312 162.17646484 -53.98140625 161.91542969 -53.0703125 161.64648438 C-46.83609494 159.8430143 -40.57842582 158.38454176 -34.22607422 157.06030273 C-29.99342865 156.16971375 -25.77396578 155.2288049 -21.5546875 154.27734375 C-20.01434079 153.93156101 -18.47397605 153.58585855 -16.93359375 153.24023438 C-14.5860645 152.71308282 -12.23877278 152.18495998 -9.89208984 151.65405273 C-1.63159865 149.78681429 6.59526913 148.00215045 14.96533203 146.6862793 C18.36219695 146.12907371 21.71715127 145.4201796 25.08300781 144.70214844 C33.95829385 142.81234006 42.53624604 141.55095212 51.625 141.25 C51.88023437 140.57582031 52.13546875 139.90164063 52.3984375 139.20703125 C53.85368805 135.69867244 55.53447835 132.32321448 57.25 128.9375 C57.57484375 128.29232422 57.8996875 127.64714844 58.234375 126.98242188 C59.02941956 125.40402459 59.82695634 123.82688306 60.625 122.25 C61.285 122.25 61.945 122.25 62.625 122.25 C62.76035156 121.55003906 62.89570313 120.85007812 63.03515625 120.12890625 C63.64946556 117.13058862 64.33701586 114.16085727 65.0625 111.1875 C65.43181641 109.65416016 65.43181641 109.65416016 65.80859375 108.08984375 C66.625 105.25 66.625 105.25 67.68359375 103.296875 C73.03678913 91.65756223 70.89013893 68.20236862 66.671875 56.63671875 C65.99061006 54.92084622 65.28845298 53.21307389 64.5625 51.515625 C63.625 49.25 63.625 49.25 62.625 45.75 C61.84510014 43.10212022 61.84510014 43.10212022 59.5 41.875 C58.88125 41.66875 58.2625 41.4625 57.625 41.25 C57.625 40.59 57.625 39.93 57.625 39.25 C56.965 39.25 56.305 39.25 55.625 39.25 C55.625 38.59 55.625 37.93 55.625 37.25 C54.305 36.59 52.985 35.93 51.625 35.25 C51.625 34.26 51.625 33.27 51.625 32.25 C49.6866793 31.27870022 47.74741075 30.31002583 45.80078125 29.35546875 C40.19162444 26.59204768 40.19162444 26.59204768 37.703125 25.08984375 C10.22099299 8.52600062 -26.75447977 9.26109421 -57.34423828 14.88623047 C-60.34406114 15.42358753 -63.35578614 15.83701324 -66.375 16.25 C-66.375 16.91 -66.375 17.57 -66.375 18.25 C-70.335 18.91 -74.295 19.57 -78.375 20.25 C-78.375 20.91 -78.375 21.57 -78.375 22.25 C-79.20902344 22.55292969 -80.04304688 22.85585937 -80.90234375 23.16796875 C-87.12352529 25.48398708 -92.97722083 27.90068974 -98.66796875 31.33203125 C-100.375 32.25 -100.375 32.25 -102.375 32.25 C-102.375 32.91 -102.375 33.57 -102.375 34.25 C-104.47760341 35.39878332 -106.58196539 36.54411192 -108.6875 37.6875 C-109.28240234 38.01298828 -109.87730469 38.33847656 -110.49023438 38.67382812 C-113.09873626 40.08737384 -115.55345899 41.30948633 -118.375 42.25 C-118.375 42.91 -118.375 43.57 -118.375 44.25 C-123.85119048 49.25 -123.85119048 49.25 -126.375 49.25 C-126.601875 49.8275 -126.82875 50.405 -127.0625 51 C-128.375 53.25 -128.375 53.25 -130.625 55 C-133.75114838 57.55775776 -135.75862298 60.33766595 -138.04296875 63.640625 C-138.70232422 64.43726563 -138.70232422 64.43726563 -139.375 65.25 C-140.035 65.25 -140.695 65.25 -141.375 65.25 C-142.035 67.23 -142.695 69.21 -143.375 71.25 C-144.035 71.25 -144.695 71.25 -145.375 71.25 C-145.4575 71.91 -145.54 72.57 -145.625 73.25 C-146.46557116 76.61228463 -147.8236533 79.3331169 -149.4375 82.3828125 C-150.50137293 84.3906578 -150.50137293 84.3906578 -151.375 87.25 C-152.035 87.25 -152.695 87.25 -153.375 87.25 C-153.43558594 87.92546875 -153.49617187 88.6009375 -153.55859375 89.296875 C-153.64238281 90.18890625 -153.72617188 91.0809375 -153.8125 92 C-153.89371094 92.88171875 -153.97492188 93.7634375 -154.05859375 94.671875 C-154.375 97.25 -154.375 97.25 -154.87329102 99.16918945 C-157.51748775 110.13585064 -155.98458809 120.24935539 -150.19921875 129.74609375 C-147.25022116 133.79386132 -145.13216311 135.57856431 -140.375 137.25 C-140.375 137.91 -140.375 138.57 -140.375 139.25 C-128.74807977 142.30206656 -117.27714055 143.77163995 -105.375 141.25 C-103.93871543 141.18733488 -102.4999445 141.16313653 -101.0625 141.1875 C-99.2371875 141.2184375 -99.2371875 141.2184375 -97.375 141.25 C-97.045 142.24 -96.715 143.23 -96.375 144.25 C-95.715 144.25 -95.055 144.25 -94.375 144.25 C-94.375 144.91 -94.375 145.57 -94.375 146.25 C-93.715 146.25 -93.055 146.25 -92.375 146.25 C-92.375 148.23 -92.375 150.21 -92.375 152.25 C-104.31645954 157.07251251 -120.02208025 157.08064277 -131.98828125 152.1796875 C-134.51506599 150.96038925 -136.94483181 149.65125019 -139.375 148.25 C-140.16777344 147.79882812 -140.96054688 147.34765625 -141.77734375 146.8828125 C-145.85238454 144.46213801 -145.85238454 144.46213801 -147.375 143.25 C-147.375 142.59 -147.375 141.93 -147.375 141.25 C-148.365 140.92 -149.355 140.59 -150.375 140.25 C-150.375 139.59 -150.375 138.93 -150.375 138.25 C-151.035 138.25 -151.695 138.25 -152.375 138.25 C-152.375 137.59 -152.375 136.93 -152.375 136.25 C-153.365 135.92 -154.355 135.59 -155.375 135.25 C-163.70741581 123.92312226 -166.9856817 112.10484104 -166.375 98.25 C-166.33375 97.29351562 -166.2925 96.33703125 -166.25 95.3515625 C-165.87203367 89.60332451 -164.86161951 85.42216857 -162.375 80.25 C-162.08625 79.156875 -161.7975 78.06375 -161.5 76.9375 C-160.01534502 72.07113088 -157.74194043 67.73995952 -155.375 63.25 C-154.715 63.25 -154.055 63.25 -153.375 63.25 C-153.375 62.59 -153.375 61.93 -153.375 61.25 C-152.715 61.25 -152.055 61.25 -151.375 61.25 C-151.148125 60.38375 -150.92125 59.5175 -150.6875 58.625 C-149.11610401 54.58426745 -147.35407516 52.37802891 -144.375 49.25 C-143.715 49.25 -143.055 49.25 -142.375 49.25 C-142.1275 48.693125 -141.88 48.13625 -141.625 47.5625 C-139.3224923 43.30286076 -136.48352051 39.85206299 -132.375 37.25 C-131.715 37.25 -131.055 37.25 -130.375 37.25 C-130.375 36.59 -130.375 35.93 -130.375 35.25 C-128.2578125 33.5234375 -128.2578125 33.5234375 -125.5 31.625 C-124.59507813 30.99335938 -123.69015625 30.36171875 -122.7578125 29.7109375 C-120.375 28.25 -120.375 28.25 -118.375 28.25 C-118.375 27.59 -118.375 26.93 -118.375 26.25 C-115.375 24.25 -115.375 24.25 -112.375 24.25 C-112.375 23.59 -112.375 22.93 -112.375 22.25 C-110.35627728 21.14197926 -108.33491375 20.03876927 -106.3125 18.9375 C-104.62447266 18.01517578 -104.62447266 18.01517578 -102.90234375 17.07421875 C-96.11861989 13.56591416 -89.27207666 11.20438482 -81.984375 9.05664062 C-78.73180204 8.07409254 -76.22496049 7.14997366 -73.375 5.25 C-49.24843803 -2.19907601 -24.94363266 -3.55922241 0 0 Z " fill="#1E1D1D" transform="translate(166.375,202.75)"/>
<path d="M0 0 C-1.99350061 4.72144882 -3.55593732 6.56634663 -8 9 C-10.26975054 11.15335308 -12.42055456 13.39186914 -14.578125 15.65625 C-16.01800097 17.1380641 -17.50618578 18.57257752 -19 20 C-19.66 20 -20.32 20 -21 20 C-21 20.66 -21 21.32 -21 22 C-21.66 22 -22.32 22 -23 22 C-23 22.66 -23 23.32 -23 24 C-24.72421427 25.21485385 -26.50634884 26.34818704 -28.3125 27.4375 C-31.58991561 29.42108618 -34.33927548 31.25815583 -37 34 C-39.1875 34.6875 -39.1875 34.6875 -41 35 C-41 35.66 -41 36.32 -41 37 C-41.66 37.20625 -42.32 37.4125 -43 37.625 C-45.70781826 38.86608337 -47.55447585 40.11810072 -49.875 41.9375 C-53.40724999 44.66937125 -56.82544871 46.35999771 -61 48 C-62.29801299 48.63298164 -63.58948819 49.27950087 -64.875 49.9375 C-72.80728511 53.92630623 -80.80552635 57.02718046 -89.25390625 59.75390625 C-91.84108856 60.61450183 -94.32566842 61.51857987 -96.8515625 62.5234375 C-101.40879791 64.24843672 -106.02887111 65.18664321 -110.8125 66.0625 C-112.18184692 66.31628418 -112.18184692 66.31628418 -113.57885742 66.57519531 C-154.72531938 73.95107434 -154.72531938 73.95107434 -171 65 C-170.53680089 60.27536912 -169.90108294 56.82942948 -167 53 C-166.34 53 -165.68 53 -165 53 C-164.7525 52.360625 -164.505 51.72125 -164.25 51.0625 C-163 49 -163 49 -160.875 48.25 C-160.25625 48.1675 -159.6375 48.085 -159 48 C-159 47.34 -159 46.68 -159 46 C-152.25859696 41.16497733 -141.54637521 34 -133 34 C-132.71125 35.0725 -132.4225 36.145 -132.125 37.25 C-131.27179891 40.09400364 -130.4363497 42.43508983 -129 45 C-126.02884844 44.68036511 -126.02884844 44.68036511 -123 43 C-121.55562735 40.10596396 -120.73692916 37.14164535 -120 34 C-119.34 34 -118.68 34 -118 34 C-117.690625 33.21625 -117.38125 32.4325 -117.0625 31.625 C-115.15145481 26.90359424 -113.74313281 26.08524973 -109 24 C-106.36969702 23.21685024 -103.78855417 22.50917956 -101.125 21.875 C-100.45597656 21.70613281 -99.78695312 21.53726562 -99.09765625 21.36328125 C-94.41656128 20.217811 -89.79014234 19.5250939 -85 19 C-85 18.34 -85 17.68 -85 17 C-83.27192682 16.66104344 -81.54248026 16.32908475 -79.8125 16 C-78.84957031 15.814375 -77.88664062 15.62875 -76.89453125 15.4375 C-74.2065794 15.03122388 -71.71228981 14.92066428 -69 15 C-69 14.34 -69 13.68 -69 13 C-68.030625 12.82984375 -67.06125 12.6596875 -66.0625 12.484375 C-58.97576595 11.21276345 -51.97000026 9.81091831 -45 8 C-37.73354143 6.12028377 -30.43576332 4.68498817 -23.04833984 3.37207031 C-20.89962528 2.98176745 -18.75645182 2.56807267 -16.61328125 2.1484375 C-15.89333984 2.00865479 -15.17339844 1.86887207 -14.43164062 1.72485352 C-12.42934798 1.33523689 -10.42754867 0.94308743 -8.42578125 0.55078125 C-5.52776942 0.08485232 -2.92297366 -0.11736606 0 0 Z " fill="#000000" transform="translate(205,360)"/>
<path d="M0 0 C0.66 0.33 1.32 0.66 2 1 C7.05237142 16.15711426 -0.13395697 35.3211604 -4.42285156 50.01977539 C-4.96365234 51.87528939 -5.49204385 53.73440745 -6.01953125 55.59375 C-7.01572568 59.05463263 -8.06090624 62.49693018 -9.125 65.9375 C-9.65480469 67.65259766 -9.65480469 67.65259766 -10.1953125 69.40234375 C-10.46085938 70.25957031 -10.72640625 71.11679687 -11 72 C-11.66 72 -12.32 72 -13 72 C-13.33 74.31 -13.66 76.62 -14 79 C-14.66 79 -15.32 79 -16 79 C-16.11214844 79.70511719 -16.22429688 80.41023438 -16.33984375 81.13671875 C-17.06314908 84.27389512 -18.19457691 86.90127906 -19.5625 89.8125 C-20.01753906 90.78832031 -20.47257813 91.76414062 -20.94140625 92.76953125 C-21.29074219 93.50558594 -21.64007812 94.24164063 -22 95 C-22.66 95 -23.32 95 -24 95 C-24.10828125 95.5671875 -24.2165625 96.134375 -24.328125 96.71875 C-26.08388667 102.68017334 -30.65945416 108.87382683 -36 112 C-39.6875 112.875 -39.6875 112.875 -43 113 C-45 111 -45 111 -45.15234375 108.453125 C-44.55734838 99.582285 -42.26283556 92.22688216 -39 84 C-38.22837813 81.94549455 -37.46801404 79.8870157 -36.70751953 77.82836914 C-34.24322492 71.1769614 -31.69069315 64.56318094 -29 58 C-28.59910156 57.01257813 -28.19820312 56.02515625 -27.78515625 55.0078125 C-27.36105469 53.97398437 -26.93695312 52.94015625 -26.5 51.875 C-25.92765625 50.47894531 -25.92765625 50.47894531 -25.34375 49.0546875 C-23.6920301 45.29990564 -21.85277285 41.65855194 -20 38 C-19.36715621 36.72592184 -18.7356217 35.45119243 -18.10546875 34.17578125 C-14.89681047 27.70632503 -11.64373271 21.27880832 -8.1875 14.9375 C-5.87578559 10.69407902 -3.77617568 6.49267965 -2 2 C-1.34 2 -0.68 2 0 2 C0 1.34 0 0.68 0 0 Z " fill="#010000" transform="translate(774,366)"/>
<path d="M0 0 C5.754375 -0.0928125 5.754375 -0.0928125 11.625 -0.1875 C13.42251709 -0.22846802 13.42251709 -0.22846802 15.25634766 -0.27026367 C21.0043134 -0.31514703 25.15795456 -0.23652511 30 3 C30 3.66 30 4.32 30 5 C30.99 5 31.98 5 33 5 C37.25812564 10.98798918 37.72547411 15.74525894 37 23 C36.48886671 25.75492178 35.81161424 28.31152782 35 31 C34.34 31 33.68 31 33 31 C32.79375 31.5775 32.5875 32.155 32.375 32.75 C30.17300679 36.35326162 26.92758326 38.4507805 22.875 39.60546875 C18.8463677 40.15831095 14.87378326 40.14444749 10.8125 40.125 C9.99330078 40.12886719 9.17410156 40.13273437 8.33007812 40.13671875 C2.25343208 40.12671604 2.25343208 40.12671604 0 39 C0 26.13 0 13.26 0 0 Z " fill="#1D1D1D" transform="translate(245,425)"/>
<path d="M0 0 C3.63 0 7.26 0 11 0 C11.33 1.65 11.66 3.3 12 5 C12.66 5 13.32 5 14 5 C15.5859375 6.9765625 15.5859375 6.9765625 17.375 9.625 C17.99246094 10.53507812 18.60992188 11.44515625 19.24609375 12.3828125 C19.82488281 13.24648438 20.40367187 14.11015625 21 15 C21.44472656 15.63679688 21.88945313 16.27359375 22.34765625 16.9296875 C25 20.75134409 25 20.75134409 25 23 C25.66 23 26.32 23 27 23 C28.4606285 25.64738916 29 26.89448334 29 30 C29.66 30 30.32 30 31 30 C31.33 20.1 31.66 10.2 32 0 C34.31 0 36.62 0 39 0 C39 13.2 39 26.4 39 40 C35.7 40 32.4 40 29 40 C24 34.6 24 34.6 24 31 C23.34 31 22.68 31 22 31 C20 28 20 28 20 25 C19.34 25 18.68 25 18 25 C14.1421479 20.86958227 11.37908991 16.51635966 10 11 C9.34 11 8.68 11 8 11 C8 20.57 8 30.14 8 40 C5.36 40 2.72 40 0 40 C0 26.8 0 13.6 0 0 Z " fill="#1C1B1C" transform="translate(556,425)"/>
<path d="M0 0 C15.84 0.495 15.84 0.495 32 1 C32 2.98 32 4.96 32 7 C24.08 7.33 16.16 7.66 8 8 C7.67 11.3 7.34 14.6 7 18 C14.26 18 21.52 18 29 18 C29 19.65 29 21.3 29 23 C21.74 23 14.48 23 7 23 C7 26.96 7 30.92 7 35 C8.79308594 34.98839844 10.58617187 34.97679687 12.43359375 34.96484375 C14.76822813 34.95546771 17.10286363 34.94636731 19.4375 34.9375 C20.62150391 34.92912109 21.80550781 34.92074219 23.02539062 34.91210938 C24.15009766 34.90888672 25.27480469 34.90566406 26.43359375 34.90234375 C27.47572021 34.89710693 28.51784668 34.89187012 29.59155273 34.88647461 C32 35 32 35 33 36 C33 37.65 33 39.3 33 41 C22.11 41 11.22 41 0 41 C0 27.47 0 13.94 0 0 Z " fill="#1E1E1E" transform="translate(315,424)"/>
<path d="M0 0 C0 2.31 0 4.62 0 7 C-0.70382812 6.84015625 -1.40765625 6.6803125 -2.1328125 6.515625 C-9.66602038 5.16087917 -17.35938059 4.90259654 -24 9 C-25.80796103 11.56610666 -25.80796103 11.56610666 -27 14 C-27.66 14 -28.32 14 -29 14 C-28.97188676 20.19896876 -27.93152691 23.95253715 -23.765625 28.58984375 C-19.8210489 31.74026847 -16.13050338 32.24410852 -11.1875 32.125 C-8.6196875 32.063125 -8.6196875 32.063125 -6 32 C-5.67 27.05 -5.34 22.1 -5 17 C-2.69 17 -0.38 17 2 17 C2 23.93 2 30.86 2 38 C-8.64963414 39.33120427 -16.86497859 39.69345683 -27 36 C-27 35.34 -27 34.68 -27 34 C-27.5775 33.95875 -28.155 33.9175 -28.75 33.875 C-32.16998433 32.54500609 -33.20251232 30.09911668 -35 27 C-37.08708012 20.73875963 -36.54971958 14.055584 -34 8 C-33.34 8 -32.68 8 -32 8 C-31.773125 7.4225 -31.54625 6.845 -31.3125 6.25 C-28.86127547 2.0479008 -25.92646555 0.31947088 -21.375 -1.25 C-14.24090403 -2.76329309 -6.76699926 -2.92626995 0 0 Z " fill="#1D1D1D" transform="translate(521,426)"/>
<path d="M0 0 C0 0.66 0 1.32 0 2 C0.99 2 1.98 2 3 2 C3 3.98 3 5.96 3 8 C2.14792969 7.83886719 1.29585937 7.67773438 0.41796875 7.51171875 C-2.99764499 7.00035258 -6.23592439 6.83254399 -9.6875 6.8125 C-11.36392578 6.79123047 -11.36392578 6.79123047 -13.07421875 6.76953125 C-16.19207979 6.77586326 -16.19207979 6.77586326 -19 9 C-19 10.32 -19 11.64 -19 13 C-17.87980469 13.34933594 -16.75960937 13.69867188 -15.60546875 14.05859375 C-14.13280778 14.51821405 -12.66015179 14.9778503 -11.1875 15.4375 C-10.44951172 15.66759766 -9.71152344 15.89769531 -8.95117188 16.13476562 C-5.95981589 17.0687184 -2.97302688 18.00899104 0 19 C0 19.66 0 20.32 0 21 C0.99 21 1.98 21 3 21 C5.10949524 24.42792976 5.39909827 27.00901728 5 31 C3.62928288 35.11215135 2.74479699 36.60569571 -1.12109375 38.65234375 C-5.03874721 40.21282084 -8.81797753 40.44710384 -13 40.375 C-13.67289063 40.38660156 -14.34578125 40.39820313 -15.0390625 40.41015625 C-20.11032854 40.38078598 -23.54238041 39.19398464 -28 37 C-28 35.02 -28 33.04 -28 31 C-25.69 31.33 -23.38 31.66 -21 32 C-21 32.66 -21 33.32 -21 34 C-18.95775363 33.88485851 -16.91619841 33.75742674 -14.875 33.625 C-13.16957031 33.52058594 -13.16957031 33.52058594 -11.4296875 33.4140625 C-8.04606384 33.00556124 -5.18387559 32.19032431 -2 31 C-2.33665915 28.51751876 -2.33665915 28.51751876 -4 26 C-6.06698436 24.98496304 -8.12094971 24.38551262 -10.3359375 23.7578125 C-13.30450967 22.91337995 -16.16786052 21.88209547 -19.0625 20.8125 C-20.00222656 20.46832031 -20.94195313 20.12414062 -21.91015625 19.76953125 C-22.94462891 19.38861328 -22.94462891 19.38861328 -24 19 C-24 18.34 -24 17.68 -24 17 C-24.66 17 -25.32 17 -26 17 C-27.26237731 14.47524538 -27.09856404 12.68799534 -27.0625 9.875 C-27.05347656 8.96492188 -27.04445313 8.05484375 -27.03515625 7.1171875 C-27.02355469 6.41851562 -27.01195312 5.71984375 -27 5 C-26.01 4.67 -25.02 4.34 -24 4 C-24 3.34 -24 2.68 -24 2 C-15.98412494 -1.62983021 -8.57483791 -1.91581964 0 0 Z " fill="#1C1C1C" transform="translate(656,425)"/>
<path d="M0 0 C0.9375 3.1875 0.9375 3.1875 1 6 C0.16984375 5.83757812 -0.6603125 5.67515625 -1.515625 5.5078125 C-5.30553247 4.95547173 -8.92116529 4.86743313 -12.75 4.875 C-14.06484375 4.87242187 -15.3796875 4.86984375 -16.734375 4.8671875 C-19.8851571 4.77153771 -19.8851571 4.77153771 -22 6 C-22 7.32 -22 8.64 -22 10 C-15.39850171 12.5390378 -8.71946282 14.79377637 -2 17 C-2 17.66 -2 18.32 -2 19 C-1.34 19 -0.68 19 0 19 C0 19.66 0 20.32 0 21 C0.66 21 1.32 21 2 21 C3.26026798 23.52053595 2.91874445 24.8542098 2.5625 27.625 C2.46066406 28.44226563 2.35882813 29.25953125 2.25390625 30.1015625 C2.17011719 30.72804688 2.08632813 31.35453125 2 32 C1.34 32 0.68 32 0 32 C0 32.66 0 33.32 0 34 C-7.48880509 39.34914649 -16.9734331 38.67020892 -25.75 37.5 C-26.4925 37.335 -27.235 37.17 -28 37 C-28 36.34 -28 35.68 -28 35 C-28.99 35 -29.98 35 -31 35 C-31 32.69 -31 30.38 -31 28 C-30.4225 28.309375 -29.845 28.61875 -29.25 28.9375 C-25.03077561 30.92991152 -21.21575511 31.18544617 -16.5625 31.25 C-15.45003906 31.27578125 -14.33757812 31.3015625 -13.19140625 31.328125 C-9.69563662 30.96870683 -7.83721976 30.01522151 -5 28 C-5.19471111 26.05000871 -5.19471111 26.05000871 -6 24 C-9.13737653 22.05013515 -12.42597024 21.32202685 -16 20.5 C-21.66223393 19.1976862 -26.49099292 17.88754557 -30 13 C-30.76856978 9.82284146 -30.82259454 7.16973095 -30 4 C-27.49005303 0.62068592 -24.67813398 -1.5524976 -20.59765625 -2.640625 C-13.39716842 -3.63678271 -6.25556917 -4.07971903 0 0 Z " fill="#1C1C1C" transform="translate(410,427)"/>
<path d="M0 0 C14.8 0 14.8 0 19.75 4.5 C23.28978793 8.4330977 23.44825134 11.21469109 23.42578125 16.3828125 C22.72719485 20.6768757 20.24618718 23.24999169 17 26 C13.93618406 27.53190797 10.73034134 27.10243613 7.375 27.0625 C4.94125 27.041875 2.5075 27.02125 0 27 C0 18.09 0 9.18 0 0 Z " fill="#000000" transform="translate(252,431)"/>
<path d="M0 0 C2.64 0 5.28 0 8 0 C8 13.2 8 26.4 8 40 C5.36 40 2.72 40 0 40 C0 26.8 0 13.6 0 0 Z " fill="#1A1A1A" transform="translate(445,425)"/>
<path d="M0 0 C0.33 1.65 0.66 3.3 1 5 C-2.65858457 7.3461865 -6.32788647 9.67505238 -10 12 C-10.5770166 12.36851074 -11.1540332 12.73702148 -11.74853516 13.11669922 C-13.49486326 14.23036255 -15.24676839 15.33474489 -17 16.4375 C-18.60875 17.45650391 -18.60875 17.45650391 -20.25 18.49609375 C-23 20 -23 20 -26 20 C-26 20.66 -26 21.32 -26 22 C-27.65 22 -29.3 22 -31 22 C-30.3871681 16.79092889 -28.26583213 12.9320265 -24.25 9.5078125 C-19.49364407 6 -19.49364407 6 -17 6 C-17 5.34 -17 4.68 -17 4 C-11.15439723 1.36536213 -6.45512034 -0.56131481 0 0 Z " fill="#030102" transform="translate(455,342)"/>
<path d="M0 0 C1.65 0.33 3.3 0.66 5 1 C5 1.66 5 2.32 5 3 C5.66 3 6.32 3 7 3 C8.48731668 5.97463337 8.4313052 7.67278843 8 11 C6.26730813 13.90061393 4.22424429 16.46187209 2 19 C1.50242187 19.57492187 1.00484375 20.14984375 0.4921875 20.7421875 C-1 22 -1 22 -4.0625 21.9375 C-7 21 -7 21 -8.375 19.3125 C-9.18455528 16.31714545 -9.30874524 14.1062783 -9 11 C-7.03125 8.0078125 -7.03125 8.0078125 -4.5 5.125 C-3.6646875 4.15820312 -2.829375 3.19140625 -1.96875 2.1953125 C-1.3190625 1.47085937 -0.669375 0.74640625 0 0 Z " fill="#1E1C1D" transform="translate(745,301)"/>
<path d="M0 0 C8.14583333 -0.47916667 8.14583333 -0.47916667 11.5625 1.4375 C13.66155794 5.17929894 13.66568876 8.79687211 13 13 C12.01 14.485 12.01 14.485 11 16 C8.3984375 16.51171875 8.3984375 16.51171875 5.375 16.6875 C3.60125 16.790625 1.8275 16.89375 0 17 C0 11.39 0 5.78 0 0 Z " fill="#1C1C1C" transform="translate(245,490)"/>
<path d="M0 0 C9.625 -0.25 9.625 -0.25 13 2 C12.835 2.9075 12.67 3.815 12.5 4.75 C11.76313623 9.53961451 12.05339127 12.62013036 14 17 C12.1875 16.8125 12.1875 16.8125 10 16 C9.525625 15.195625 9.05125 14.39125 8.5625 13.5625 C6.70708037 10.5196118 5.34723519 9.99512398 2 9 C2 11.31 2 13.62 2 16 C1.34 16 0.68 16 0 16 C0 10.72 0 5.44 0 0 Z " fill="#161616" transform="translate(434,490)"/>
<path d="M0 0 C1.588125 -0.061875 3.17625 -0.12375 4.8125 -0.1875 C6.15248047 -0.23970703 6.15248047 -0.23970703 7.51953125 -0.29296875 C10 0 10 0 11.8359375 1.35546875 C13 3 13 3 12.8125 5.5 C12 8 12 8 10 11 C10.66 11 11.32 11 12 11 C12.33 12.98 12.66 14.96 13 17 C10 16 10 16 8.0625 13 C6.33756036 9.88835952 6.33756036 9.88835952 3.75 9.125 C2.88375 9.063125 2.88375 9.063125 2 9 C2 11.31 2 13.62 2 16 C1.34 16 0.68 16 0 16 C0 10.72 0 5.44 0 0 Z " fill="#181818" transform="translate(270,490)"/>
<path d="M0 0 C1.32 0 2.64 0 4 0 C4 10.23 4 20.46 4 31 C2.68 31 1.36 31 0 31 C0 20.77 0 10.54 0 0 Z " fill="#040304" transform="translate(462,146)"/>
<path d="M0 0 C1.32 0 2.64 0 4 0 C4.8655047 2.26708325 5.71759315 4.53775079 6.5625 6.8125 C6.80935547 7.45509766 7.05621094 8.09769531 7.31054688 8.75976562 C9.11328125 13.66015625 9.11328125 13.66015625 8 17 C7.34 16.67 6.68 16.34 6 16 C6 14.68 6 13.36 6 12 C3.36 12 0.72 12 -2 12 C-2.33 13.32 -2.66 14.64 -3 16 C-3.66 16 -4.32 16 -5 16 C-3.71291613 10.45563871 -2.08135307 5.29798964 0 0 Z " fill="#191919" transform="translate(486,490)"/>
<path d="M0 0 C1.8984375 0.2734375 1.8984375 0.2734375 4 1 C5.21491262 3.71018969 6.15750393 6.17838594 7 9 C7.20753906 9.68835938 7.41507812 10.37671875 7.62890625 11.0859375 C8.10532595 12.71842459 8.55544073 14.35855038 9 16 C8.01 16 7.02 16 6 16 C6 14.68 6 13.36 6 12 C3.36 12 0.72 12 -2 12 C-2.33 13.32 -2.66 14.64 -3 16 C-3.66 16 -4.32 16 -5 16 C-4.54548816 14.26982492 -4.08621143 12.54090123 -3.625 10.8125 C-3.36976563 9.84957031 -3.11453125 8.88664062 -2.8515625 7.89453125 C-2.05233704 5.17789793 -1.0968638 2.60862825 0 0 Z " fill="#161616" transform="translate(322,490)"/>
<path d="M0 0 C3.96 0 7.92 0 12 0 C12 0.66 12 1.32 12 2 C9.03 2 6.06 2 3 2 C3 3.65 3 5.3 3 7 C5.97 7 8.94 7 12 7 C12 7.66 12 8.32 12 9 C9.03 9 6.06 9 3 9 C3 10.65 3 12.3 3 14 C5.97 14 8.94 14 12 14 C12 14.66 12 15.32 12 16 C8.04 16 4.08 16 0 16 C0 10.72 0 5.44 0 0 Z " fill="#181818" transform="translate(649,490)"/>
<path d="M0 0 C1.51400391 0.01740234 1.51400391 0.01740234 3.05859375 0.03515625 C4.07050781 0.04417969 5.08242188 0.05320312 6.125 0.0625 C7.29869141 0.07990234 7.29869141 0.07990234 8.49609375 0.09765625 C8.49609375 0.75765625 8.49609375 1.41765625 8.49609375 2.09765625 C5.52609375 2.09765625 2.55609375 2.09765625 -0.50390625 2.09765625 C-0.50390625 3.74765625 -0.50390625 5.39765625 -0.50390625 7.09765625 C2.46609375 7.09765625 5.43609375 7.09765625 8.49609375 7.09765625 C8.49609375 7.75765625 8.49609375 8.41765625 8.49609375 9.09765625 C5.52609375 9.09765625 2.55609375 9.09765625 -0.50390625 9.09765625 C-0.50390625 10.74765625 -0.50390625 12.39765625 -0.50390625 14.09765625 C2.46609375 14.09765625 5.43609375 14.09765625 8.49609375 14.09765625 C8.49609375 14.75765625 8.49609375 15.41765625 8.49609375 16.09765625 C4.53609375 16.09765625 0.57609375 16.09765625 -3.50390625 16.09765625 C-3.5307572 13.61841824 -3.55067172 11.13946785 -3.56640625 8.66015625 C-3.57897461 7.59958008 -3.57897461 7.59958008 -3.59179688 6.51757812 C-3.60044213 4.71072066 -3.55610636 2.90378022 -3.50390625 1.09765625 C-2.50390625 0.09765625 -2.50390625 0.09765625 0 0 Z " fill="#1B1B1B" transform="translate(461.50390625,489.90234375)"/>
<path d="M0 0 C6 0 6 0 7.875 1.125 C9.51151479 3.85252465 9.32502803 5.87973093 9 9 C8.01 10.485 8.01 10.485 7 12 C3.375 12.1875 3.375 12.1875 0 12 C0 8.04 0 4.08 0 0 Z " fill="#010101" transform="translate(247,492)"/>
<path d="M0 0 C4.2775273 2.13876365 4.59759327 2.49398317 6.25 6.625 C6.75273437 7.85089844 6.75273437 7.85089844 7.265625 9.1015625 C7.62914062 10.04128906 7.62914062 10.04128906 8 11 C8.99 9.68 9.98 8.36 11 7 C10.125 14.75 10.125 14.75 9 17 C8.01 17 7.02 17 6 17 C5.01 14.36 4.02 11.72 3 9 C2.67 11.64 2.34 14.28 2 17 C1.34 17 0.68 17 0 17 C0 11.39 0 5.78 0 0 Z " fill="#161616" transform="translate(342,489)"/>
<path d="M0 0 C2.375 1.375 2.375 1.375 4 3 C4 3.66 4 4.32 4 5 C3.01 5 2.02 5 1 5 C0.67 4.34 0.34 3.68 0 3 C-1.66611905 2.957279 -3.33382885 2.95936168 -5 3 C-6.25949049 4.03406673 -6.25949049 4.03406673 -6.09765625 6.28515625 C-6.08605469 7.20167969 -6.07445312 8.11820312 -6.0625 9.0625 C-6.05347656 9.98160156 -6.04445313 10.90070313 -6.03515625 11.84765625 C-6.02355469 12.55792969 -6.01195312 13.26820313 -6 14 C-3.69 14 -1.38 14 1 14 C1.33 13.01 1.66 12.02 2 11 C2.66 11 3.32 11 4 11 C3.6875 12.875 3.6875 12.875 3 15 C0 17 0 17 -3.5 16.9375 C-7 16 -7 16 -9 14 C-10.35995598 9.92013205 -10.27994907 6.12338023 -9 2 C-5.51131349 -0.32579101 -4.10281481 -0.41865457 0 0 Z " fill="#171717" transform="translate(418,490)"/>
<path d="M0 0 C1.37478516 0.01740234 1.37478516 0.01740234 2.77734375 0.03515625 C3.69644531 0.04417969 4.61554687 0.05320312 5.5625 0.0625 C6.27277344 0.07410156 6.98304688 0.08570313 7.71484375 0.09765625 C7.71484375 0.75765625 7.71484375 1.41765625 7.71484375 2.09765625 C4.74484375 2.09765625 1.77484375 2.09765625 -1.28515625 2.09765625 C-1.28515625 3.74765625 -1.28515625 5.39765625 -1.28515625 7.09765625 C1.68484375 7.09765625 4.65484375 7.09765625 7.71484375 7.09765625 C7.71484375 7.75765625 7.71484375 8.41765625 7.71484375 9.09765625 C4.74484375 9.09765625 1.77484375 9.09765625 -1.28515625 9.09765625 C-1.28515625 10.74765625 -1.28515625 12.39765625 -1.28515625 14.09765625 C1.68484375 14.09765625 4.65484375 14.09765625 7.71484375 14.09765625 C7.71484375 14.75765625 7.71484375 15.41765625 7.71484375 16.09765625 C4.08484375 16.09765625 0.45484375 16.09765625 -3.28515625 16.09765625 C-3.3120072 13.61841824 -3.33192172 11.13946785 -3.34765625 8.66015625 C-3.36022461 7.59958008 -3.36022461 7.59958008 -3.37304688 6.51757812 C-3.38169213 4.71072066 -3.33735636 2.90378022 -3.28515625 1.09765625 C-2.28515625 0.09765625 -2.28515625 0.09765625 0 0 Z " fill="#1A1A1A" transform="translate(530.28515625,489.90234375)"/>
<path d="M0 0 C1.37478516 0.01740234 1.37478516 0.01740234 2.77734375 0.03515625 C3.69644531 0.04417969 4.61554688 0.05320312 5.5625 0.0625 C6.27277344 0.07410156 6.98304688 0.08570313 7.71484375 0.09765625 C7.71484375 0.75765625 7.71484375 1.41765625 7.71484375 2.09765625 C4.74484375 2.09765625 1.77484375 2.09765625 -1.28515625 2.09765625 C-1.28515625 3.74765625 -1.28515625 5.39765625 -1.28515625 7.09765625 C1.68484375 7.09765625 4.65484375 7.09765625 7.71484375 7.09765625 C7.71484375 7.75765625 7.71484375 8.41765625 7.71484375 9.09765625 C4.74484375 9.09765625 1.77484375 9.09765625 -1.28515625 9.09765625 C-1.28515625 10.74765625 -1.28515625 12.39765625 -1.28515625 14.09765625 C1.68484375 14.09765625 4.65484375 14.09765625 7.71484375 14.09765625 C7.71484375 14.75765625 7.71484375 15.41765625 7.71484375 16.09765625 C4.08484375 16.09765625 0.45484375 16.09765625 -3.28515625 16.09765625 C-3.3120072 13.61841824 -3.33192172 11.13946785 -3.34765625 8.66015625 C-3.36022461 7.59958008 -3.36022461 7.59958008 -3.37304688 6.51757812 C-3.38169213 4.71072066 -3.33735636 2.90378022 -3.28515625 1.09765625 C-2.28515625 0.09765625 -2.28515625 0.09765625 0 0 Z " fill="#1A1A1A" transform="translate(298.28515625,489.90234375)"/>
<path d="M0 0 C1.98 0 3.96 0 6 0 C5.40501599 2.97492003 4.50804004 4.61871235 2.07421875 6.4453125 C-2.35893822 9.05305189 -5.7234163 10.67648509 -11 10 C-11 9.34 -11 8.68 -11 8 C-10.34 8 -9.68 8 -9 8 C-9 7.34 -9 6.68 -9 6 C-3.70588235 2 -3.70588235 2 0 2 C0 1.34 0 0.68 0 0 Z " fill="#050304" transform="translate(371,338)"/>
<path d="M0 0 C0.99 0.33 1.98 0.66 3 1 C4.16796875 3.50390625 4.16796875 3.50390625 5.1875 6.5625 C5.53167969 7.57441406 5.87585938 8.58632813 6.23046875 9.62890625 C6.48441406 10.41136719 6.73835937 11.19382812 7 12 C8.66832577 9.49751135 9.62381674 7.58850813 10.625 4.8125 C10.88539063 4.09707031 11.14578125 3.38164062 11.4140625 2.64453125 C11.60742188 2.10183594 11.80078125 1.55914062 12 1 C12.99 1 13.98 1 15 1 C14.23757784 4.61055091 12.87526626 7.85834625 11.4375 11.25 C10.98246094 12.32765625 10.52742187 13.4053125 10.05859375 14.515625 C9.70925781 15.33546875 9.35992188 16.1553125 9 17 C8.01 17 7.02 17 6 17 C4.99580363 14.5433053 3.99649499 12.08481647 3 9.625 C2.71382812 8.92632812 2.42765625 8.22765625 2.1328125 7.5078125 C0 2.2265625 0 2.2265625 0 0 Z " fill="#171717" transform="translate(624,489)"/>
<path d="M0 0 C-1.61774216 3.60880944 -3.27771546 6.12444531 -6.8671875 7.94921875 C-10.6990783 9.3582214 -13.84676896 10.38936541 -18 10 C-13.37992237 4.94679009 -7.37931593 -1.15301811 0 0 Z " fill="#040303" transform="translate(853,338)"/>
<path d="M0 0 C4.29 0 8.58 0 13 0 C13 0.66 13 1.32 13 2 C11.35 2 9.7 2 8 2 C8 6.95 8 11.9 8 17 C7.01 16.67 6.02 16.34 5 16 C5 11.38 5 6.76 5 2 C3.35 2 1.7 2 0 2 C0 1.34 0 0.68 0 0 Z " fill="#171717" transform="translate(503,490)"/>
<path d="M0 0 C3.3 0 6.6 0 10 0 C10 0.66 10 1.32 10 2 C7.36 2 4.72 2 2 2 C2 3.65 2 5.3 2 7 C3.65 7 5.3 7 7 7 C7.33 7.66 7.66 8.32 8 9 C6.02 9 4.04 9 2 9 C2 11.31 2 13.62 2 16 C1.34 16 0.68 16 0 16 C0 10.72 0 5.44 0 0 Z " fill="#1A1A1A" transform="translate(434,490)"/>
<path d="M0 0 C1.98 0.495 1.98 0.495 4 1 C3.67 6.28 3.34 11.56 3 17 C2.34 17 1.68 17 1 17 C1 13.7 1 10.4 1 7 C0.34 7 -0.32 7 -1 7 C-0.67 4.69 -0.34 2.38 0 0 Z " fill="#1D1D1D" transform="translate(354,489)"/>
<path d="M0 0 C0.66 0 1.32 0 2 0 C2.12375 0.969375 2.2475 1.93875 2.375 2.9375 C2.58125 3.948125 2.7875 4.95875 3 6 C3.66 6.33 4.32 6.66 5 7 C5.33 6.34 5.66 5.68 6 5 C6.66 7.31 7.32 9.62 8 12 C7.01 12 6.02 12 5 12 C5 10.68 5 9.36 5 8 C2.36 8 -0.28 8 -3 8 C-2.01 5.36 -1.02 2.72 0 0 Z " fill="#161616" transform="translate(487,494)"/>
<path d="M0 0 C0.66 0 1.32 0 2 0 C2.99 2.97 3.98 5.94 5 9 C4.01 9 3.02 9 2 9 C2 7.68 2 6.36 2 5 C-0.64 5 -3.28 5 -6 5 C-6.33 6.32 -6.66 7.64 -7 9 C-7.66 9 -8.32 9 -9 9 C-8.39816251 6.97954558 -7.72693904 4.97888961 -7 3 C-4.3333581 1.66667905 -2.83319697 2.32897967 0 3 C0 2.01 0 1.02 0 0 Z " fill="#191919" transform="translate(326,497)"/>
<path d="M0 0 C0.66 0 1.32 0 2 0 C2 4.29 2 8.58 2 13 C4.64 13 7.28 13 10 13 C10 13.66 10 14.32 10 15 C6.7 15 3.4 15 0 15 C0 10.05 0 5.1 0 0 Z " fill="#191919" transform="translate(590,491)"/>
<path d="M0 0 C0.33 0 0.66 0 1 0 C1.33 2.64 1.66 5.28 2 8 C2.33 8 2.66 8 3 8 C3 9.65 3 11.3 3 13 C5.97 13 8.94 13 12 13 C12 13.66 12 14.32 12 15 C8.04 15 4.08 15 0 15 C0 10.05 0 5.1 0 0 Z " fill="#131313" transform="translate(458,491)"/>
<path d="M0 0 C2.64 0 5.28 0 8 0 C7.67 1.65 7.34 3.3 7 5 C4.69 5 2.38 5 0 5 C0 3.35 0 1.7 0 0 Z " fill="#020202" transform="translate(272,492)"/>
<path d="M0 0 C2.31 0 4.62 0 7 0 C7.5625 1.9375 7.5625 1.9375 8 4 C7 5 7 5 3.4375 5.0625 C2.303125 5.041875 1.16875 5.02125 0 5 C0 3.35 0 1.7 0 0 Z " fill="#020202" transform="translate(436,492)"/>
<path d="M0 0 C0.33 0 0.66 0 1 0 C1.05422947 1.4370809 1.09289723 2.87475462 1.125 4.3125 C1.14820313 5.11300781 1.17140625 5.91351563 1.1953125 6.73828125 C1 9 1 9 -1 12 C-3.6015625 12.51171875 -3.6015625 12.51171875 -6.625 12.6875 C-8.12933594 12.78611328 -8.12933594 12.78611328 -9.6640625 12.88671875 C-10.43492187 12.92410156 -11.20578125 12.96148437 -12 13 C-11.34 12.01 -10.68 11.02 -10 10 C-6.375 9.8125 -6.375 9.8125 -3 10 C-2.67 9.01 -2.34 8.02 -2 7 C-1.67 7 -1.34 7 -1 7 C-0.67 4.69 -0.34 2.38 0 0 Z " fill="#141414" transform="translate(257,494)"/>
<path d="M0 0 C0.99 0.33 1.98 0.66 3 1 C2.67 6.28 2.34 11.56 2 17 C1.34 17 0.68 17 0 17 C0 11.39 0 5.78 0 0 Z " fill="#1C1C1C" transform="translate(342,489)"/>
<path d="M0 0 C0.33 1.98 0.66 3.96 1 6 C-1.31 6 -3.62 6 -6 6 C-5.67 4.35 -5.34 2.7 -5 1 C-2 0 -2 0 0 0 Z " fill="#0C0C0C" transform="translate(325,494)"/>
<path d="M0 0 C1.98 0.495 1.98 0.495 4 1 C3.67 2.32 3.34 3.64 3 5 C3 4.34 3 3.68 3 3 C2.34 3 1.68 3 1 3 C1.33 4.32 1.66 5.64 2 7 C1.01 7 0.02 7 -1 7 C-0.67 4.69 -0.34 2.38 0 0 Z " fill="#131313" transform="translate(354,489)"/>
<path d="M0 0 C0.66 0.33 1.32 0.66 2 1 C-0.97 3.97 -3.94 6.94 -7 10 C-7 7 -7 7 -4.625 4.4375 C-3.75875 3.633125 -2.8925 2.82875 -2 2 C-1.34 1.34 -0.68 0.68 0 0 Z " fill="#171616" transform="translate(358,332)"/>
<path d="M0 0 C0.66 0 1.32 0 2 0 C2.33 1.98 2.66 3.96 3 6 C1.68 6 0.36 6 -1 6 C-0.67 4.02 -0.34 2.04 0 0 Z " fill="#040404" transform="translate(487,494)"/>
</svg>
